<svg width="204" height="129" viewBox="0 0 204 129" fill="none" xmlns="http://www.w3.org/2000/svg">
<path d="M45.1781 19.304C48.7301 19.304 51.8341 20.008 54.4901 21.416C57.1461 22.824 59.1941 24.808 60.6341 27.368C62.1061 29.896 62.8421 32.824 62.8421 36.152C62.8421 39.448 62.1061 42.376 60.6341 44.936C59.1941 47.496 57.1301 49.48 54.4421 50.888C51.7861 52.296 48.6981 53 45.1781 53H32.5541V19.304H45.1781ZM44.6501 45.896C47.7541 45.896 50.1701 45.048 51.8981 43.352C53.6261 41.656 54.4901 39.256 54.4901 36.152C54.4901 33.048 53.6261 30.632 51.8981 28.904C50.1701 27.176 47.7541 26.312 44.6501 26.312H40.7621V45.896H44.6501ZM92.6771 39.176C92.6771 39.944 92.6291 40.744 92.5331 41.576H73.9571C74.0851 43.24 74.6131 44.52 75.5411 45.416C76.5011 46.28 77.6691 46.712 79.0451 46.712C81.0931 46.712 82.5171 45.848 83.3171 44.12H92.0531C91.6051 45.88 90.7891 47.464 89.6051 48.872C88.4531 50.28 86.9971 51.384 85.2371 52.184C83.4771 52.984 81.5091 53.384 79.3331 53.384C76.7091 53.384 74.3731 52.824 72.3251 51.704C70.2771 50.584 68.6771 48.984 67.5251 46.904C66.3731 44.824 65.7971 42.392 65.7971 39.608C65.7971 36.824 66.3571 34.392 67.4771 32.312C68.6291 30.232 70.2291 28.632 72.2771 27.512C74.3251 26.392 76.6771 25.832 79.3331 25.832C81.9251 25.832 84.2291 26.376 86.2451 27.464C88.2611 28.552 89.8291 30.104 90.9491 32.12C92.1011 34.136 92.6771 36.488 92.6771 39.176ZM84.2771 37.016C84.2771 35.608 83.7971 34.488 82.8371 33.656C81.8771 32.824 80.6771 32.408 79.2371 32.408C77.8611 32.408 76.6931 32.808 75.7331 33.608C74.8051 34.408 74.2291 35.544 74.0051 37.016H84.2771ZM111.935 46.04V53H107.759C104.783 53 102.463 52.28 100.799 50.84C99.1353 49.368 98.3033 46.984 98.3033 43.688V33.032H95.0393V26.216H98.3033V19.688H106.511V26.216H111.887V33.032H106.511V43.784C106.511 44.584 106.703 45.16 107.087 45.512C107.471 45.864 108.111 46.04 109.007 46.04H111.935ZM114.875 39.56C114.875 36.808 115.387 34.392 116.411 32.312C117.467 30.232 118.891 28.632 120.683 27.512C122.475 26.392 124.475 25.832 126.683 25.832C128.571 25.832 130.219 26.216 131.627 26.984C133.067 27.752 134.171 28.76 134.939 30.008V26.216H143.147V53H134.939V49.208C134.139 50.456 133.019 51.464 131.579 52.232C130.171 53 128.523 53.384 126.635 53.384C124.459 53.384 122.475 52.824 120.683 51.704C118.891 50.552 117.467 48.936 116.411 46.856C115.387 44.744 114.875 42.312 114.875 39.56ZM134.939 39.608C134.939 37.56 134.363 35.944 133.211 34.76C132.091 33.576 130.715 32.984 129.083 32.984C127.451 32.984 126.059 33.576 124.907 34.76C123.787 35.912 123.227 37.512 123.227 39.56C123.227 41.608 123.787 43.24 124.907 44.456C126.059 45.64 127.451 46.232 129.083 46.232C130.715 46.232 132.091 45.64 133.211 44.456C134.363 43.272 134.939 41.656 134.939 39.608ZM153.213 23.432C151.773 23.432 150.589 23.016 149.661 22.184C148.765 21.32 148.317 20.264 148.317 19.016C148.317 17.736 148.765 16.68 149.661 15.848C150.589 14.984 151.773 14.552 153.213 14.552C154.621 14.552 155.773 14.984 156.669 15.848C157.597 16.68 158.061 17.736 158.061 19.016C158.061 20.264 157.597 21.32 156.669 22.184C155.773 23.016 154.621 23.432 153.213 23.432ZM157.293 26.216V53H149.085V26.216H157.293ZM171.45 17.48V53H163.242V17.48H171.45ZM37.1522 125L30.1442 112.28H28.1762V125H19.9682V91.304H33.7442C36.4002 91.304 38.6562 91.768 40.5122 92.696C42.4002 93.624 43.8082 94.904 44.7362 96.536C45.6642 98.136 46.1282 99.928 46.1282 101.912C46.1282 104.152 45.4882 106.152 44.2082 107.912C42.9602 109.672 41.1042 110.92 38.6402 111.656L46.4162 125H37.1522ZM28.1762 106.472H33.2642C34.7682 106.472 35.8882 106.104 36.6242 105.368C37.3922 104.632 37.7762 103.592 37.7762 102.248C37.7762 100.968 37.3922 99.96 36.6242 99.224C35.8882 98.488 34.7682 98.12 33.2642 98.12H28.1762V106.472ZM63.4727 125.384C60.8487 125.384 58.4807 124.824 56.3687 123.704C54.2887 122.584 52.6407 120.984 51.4247 118.904C50.2407 116.824 49.6487 114.392 49.6487 111.608C49.6487 108.856 50.2567 106.44 51.4727 104.36C52.6887 102.248 54.3527 100.632 56.4647 99.512C58.5767 98.392 60.9447 97.832 63.5687 97.832C66.1927 97.832 68.5607 98.392 70.6727 99.512C72.7847 100.632 74.4487 102.248 75.6647 104.36C76.8807 106.44 77.4887 108.856 77.4887 111.608C77.4887 114.36 76.8647 116.792 75.6167 118.904C74.4007 120.984 72.7207 122.584 70.5767 123.704C68.4647 124.824 66.0967 125.384 63.4727 125.384ZM63.4727 118.28C65.0407 118.28 66.3687 117.704 67.4567 116.552C68.5767 115.4 69.1367 113.752 69.1367 111.608C69.1367 109.464 68.5927 107.816 67.5047 106.664C66.4487 105.512 65.1367 104.936 63.5687 104.936C61.9687 104.936 60.6407 105.512 59.5847 106.664C58.5287 107.784 58.0007 109.432 58.0007 111.608C58.0007 113.752 58.5127 115.4 59.5367 116.552C60.5927 117.704 61.9047 118.28 63.4727 118.28ZM94.0352 125.384C91.4112 125.384 89.0432 124.824 86.9312 123.704C84.8512 122.584 83.2032 120.984 81.9872 118.904C80.8032 116.824 80.2112 114.392 80.2112 111.608C80.2112 108.856 80.8192 106.44 82.0352 104.36C83.2512 102.248 84.9152 100.632 87.0272 99.512C89.1392 98.392 91.5072 97.832 94.1312 97.832C96.7552 97.832 99.1232 98.392 101.235 99.512C103.347 100.632 105.011 102.248 106.227 104.36C107.443 106.44 108.051 108.856 108.051 111.608C108.051 114.36 107.427 116.792 106.179 118.904C104.963 120.984 103.283 122.584 101.139 123.704C99.0272 124.824 96.6592 125.384 94.0352 125.384ZM94.0352 118.28C95.6032 118.28 96.9312 117.704 98.0192 116.552C99.1392 115.4 99.6992 113.752 99.6992 111.608C99.6992 109.464 99.1552 107.816 98.0672 106.664C97.0112 105.512 95.6992 104.936 94.1312 104.936C92.5312 104.936 91.2032 105.512 90.1472 106.664C89.0912 107.784 88.5632 109.432 88.5632 111.608C88.5632 113.752 89.0752 115.4 90.0992 116.552C91.1552 117.704 92.4672 118.28 94.0352 118.28ZM146.582 97.928C149.91 97.928 152.55 98.936 154.502 100.952C156.486 102.968 157.478 105.768 157.478 109.352V125H149.318V110.456C149.318 108.728 148.854 107.4 147.926 106.472C147.03 105.512 145.782 105.032 144.182 105.032C142.582 105.032 141.318 105.512 140.39 106.472C139.494 107.4 139.046 108.728 139.046 110.456V125H130.886V110.456C130.886 108.728 130.422 107.4 129.494 106.472C128.598 105.512 127.35 105.032 125.75 105.032C124.15 105.032 122.886 105.512 121.958 106.472C121.062 107.4 120.614 108.728 120.614 110.456V125H112.406V98.216H120.614V101.576C121.446 100.456 122.534 99.576 123.878 98.936C125.222 98.264 126.742 97.928 128.438 97.928C130.454 97.928 132.246 98.36 133.814 99.224C135.414 100.088 136.662 101.32 137.558 102.92C138.486 101.448 139.75 100.248 141.35 99.32C142.95 98.392 144.694 97.928 146.582 97.928ZM174.114 125.384C171.778 125.384 169.698 124.984 167.874 124.184C166.05 123.384 164.61 122.296 163.554 120.92C162.498 119.512 161.906 117.944 161.778 116.216H169.89C169.986 117.144 170.418 117.896 171.186 118.472C171.954 119.048 172.898 119.336 174.018 119.336C175.042 119.336 175.826 119.144 176.37 118.76C176.946 118.344 177.234 117.816 177.234 117.176C177.234 116.408 176.834 115.848 176.034 115.496C175.234 115.112 173.938 114.696 172.146 114.248C170.226 113.8 168.626 113.336 167.346 112.856C166.066 112.344 164.962 111.56 164.034 110.504C163.106 109.416 162.642 107.96 162.642 106.136C162.642 104.6 163.058 103.208 163.89 101.96C164.754 100.68 166.002 99.672 167.634 98.936C169.298 98.2 171.266 97.832 173.538 97.832C176.898 97.832 179.538 98.664 181.458 100.328C183.41 101.992 184.53 104.2 184.818 106.952H177.234C177.106 106.024 176.69 105.288 175.986 104.744C175.314 104.2 174.418 103.928 173.298 103.928C172.338 103.928 171.602 104.12 171.09 104.504C170.578 104.856 170.322 105.352 170.322 105.992C170.322 106.76 170.722 107.336 171.522 107.72C172.354 108.104 173.634 108.488 175.362 108.872C177.346 109.384 178.962 109.896 180.21 110.408C181.458 110.888 182.546 111.688 183.474 112.808C184.434 113.896 184.93 115.368 184.962 117.224C184.962 118.792 184.514 120.2 183.618 121.448C182.754 122.664 181.49 123.624 179.826 124.328C178.194 125.032 176.29 125.384 174.114 125.384Z" fill="#2C512B"/>
</svg>
