<svg width="204" height="244" viewBox="0 0 204 244" fill="none" xmlns="http://www.w3.org/2000/svg">
<path d="M45.1781 19.304C48.7301 19.304 51.8341 20.008 54.4901 21.416C57.1461 22.824 59.1941 24.808 60.6341 27.368C62.1061 29.896 62.8421 32.824 62.8421 36.152C62.8421 39.448 62.1061 42.376 60.6341 44.936C59.1941 47.496 57.1301 49.48 54.4421 50.888C51.7861 52.296 48.6981 53 45.1781 53H32.5541V19.304H45.1781ZM44.6501 45.896C47.7541 45.896 50.1701 45.048 51.8981 43.352C53.6261 41.656 54.4901 39.256 54.4901 36.152C54.4901 33.048 53.6261 30.632 51.8981 28.904C50.1701 27.176 47.7541 26.312 44.6501 26.312H40.7621V45.896H44.6501ZM92.6771 39.176C92.6771 39.944 92.6291 40.744 92.5331 41.576H73.9571C74.0851 43.24 74.6131 44.52 75.5411 45.416C76.5011 46.28 77.6691 46.712 79.0451 46.712C81.0931 46.712 82.5171 45.848 83.3171 44.12H92.0531C91.6051 45.88 90.7891 47.464 89.6051 48.872C88.4531 50.28 86.9971 51.384 85.2371 52.184C83.4771 52.984 81.5091 53.384 79.3331 53.384C76.7091 53.384 74.3731 52.824 72.3251 51.704C70.2771 50.584 68.6771 48.984 67.5251 46.904C66.3731 44.824 65.7971 42.392 65.7971 39.608C65.7971 36.824 66.3571 34.392 67.4771 32.312C68.6291 30.232 70.2291 28.632 72.2771 27.512C74.3251 26.392 76.6771 25.832 79.3331 25.832C81.9251 25.832 84.2291 26.376 86.2451 27.464C88.2611 28.552 89.8291 30.104 90.9491 32.12C92.1011 34.136 92.6771 36.488 92.6771 39.176ZM84.2771 37.016C84.2771 35.608 83.7971 34.488 82.8371 33.656C81.8771 32.824 80.6771 32.408 79.2371 32.408C77.8611 32.408 76.6931 32.808 75.7331 33.608C74.8051 34.408 74.2291 35.544 74.0051 37.016H84.2771ZM111.935 46.04V53H107.759C104.783 53 102.463 52.28 100.799 50.84C99.1353 49.368 98.3033 46.984 98.3033 43.688V33.032H95.0393V26.216H98.3033V19.688H106.511V26.216H111.887V33.032H106.511V43.784C106.511 44.584 106.703 45.16 107.087 45.512C107.471 45.864 108.111 46.04 109.007 46.04H111.935ZM114.875 39.56C114.875 36.808 115.387 34.392 116.411 32.312C117.467 30.232 118.891 28.632 120.683 27.512C122.475 26.392 124.475 25.832 126.683 25.832C128.571 25.832 130.219 26.216 131.627 26.984C133.067 27.752 134.171 28.76 134.939 30.008V26.216H143.147V53H134.939V49.208C134.139 50.456 133.019 51.464 131.579 52.232C130.171 53 128.523 53.384 126.635 53.384C124.459 53.384 122.475 52.824 120.683 51.704C118.891 50.552 117.467 48.936 116.411 46.856C115.387 44.744 114.875 42.312 114.875 39.56ZM134.939 39.608C134.939 37.56 134.363 35.944 133.211 34.76C132.091 33.576 130.715 32.984 129.083 32.984C127.451 32.984 126.059 33.576 124.907 34.76C123.787 35.912 123.227 37.512 123.227 39.56C123.227 41.608 123.787 43.24 124.907 44.456C126.059 45.64 127.451 46.232 129.083 46.232C130.715 46.232 132.091 45.64 133.211 44.456C134.363 43.272 134.939 41.656 134.939 39.608ZM153.213 23.432C151.773 23.432 150.589 23.016 149.661 22.184C148.765 21.32 148.317 20.264 148.317 19.016C148.317 17.736 148.765 16.68 149.661 15.848C150.589 14.984 151.773 14.552 153.213 14.552C154.621 14.552 155.773 14.984 156.669 15.848C157.597 16.68 158.061 17.736 158.061 19.016C158.061 20.264 157.597 21.32 156.669 22.184C155.773 23.016 154.621 23.432 153.213 23.432ZM157.293 26.216V53H149.085V26.216H157.293ZM171.45 17.48V53H163.242V17.48H171.45ZM37.1522 125L30.1442 112.28H28.1762V125H19.9682V91.304H33.7442C36.4002 91.304 38.6562 91.768 40.5122 92.696C42.4002 93.624 43.8082 94.904 44.7362 96.536C45.6642 98.136 46.1282 99.928 46.1282 101.912C46.1282 104.152 45.4882 106.152 44.2082 107.912C42.9602 109.672 41.1042 110.92 38.6402 111.656L46.4162 125H37.1522ZM28.1762 106.472H33.2642C34.7682 106.472 35.8882 106.104 36.6242 105.368C37.3922 104.632 37.7762 103.592 37.7762 102.248C37.7762 100.968 37.3922 99.96 36.6242 99.224C35.8882 98.488 34.7682 98.12 33.2642 98.12H28.1762V106.472ZM63.4727 125.384C60.8487 125.384 58.4807 124.824 56.3687 123.704C54.2887 122.584 52.6407 120.984 51.4247 118.904C50.2407 116.824 49.6487 114.392 49.6487 111.608C49.6487 108.856 50.2567 106.44 51.4727 104.36C52.6887 102.248 54.3527 100.632 56.4647 99.512C58.5767 98.392 60.9447 97.832 63.5687 97.832C66.1927 97.832 68.5607 98.392 70.6727 99.512C72.7847 100.632 74.4487 102.248 75.6647 104.36C76.8807 106.44 77.4887 108.856 77.4887 111.608C77.4887 114.36 76.8647 116.792 75.6167 118.904C74.4007 120.984 72.7207 122.584 70.5767 123.704C68.4647 124.824 66.0967 125.384 63.4727 125.384ZM63.4727 118.28C65.0407 118.28 66.3687 117.704 67.4567 116.552C68.5767 115.4 69.1367 113.752 69.1367 111.608C69.1367 109.464 68.5927 107.816 67.5047 106.664C66.4487 105.512 65.1367 104.936 63.5687 104.936C61.9687 104.936 60.6407 105.512 59.5847 106.664C58.5287 107.784 58.0007 109.432 58.0007 111.608C58.0007 113.752 58.5127 115.4 59.5367 116.552C60.5927 117.704 61.9047 118.28 63.4727 118.28ZM94.0352 125.384C91.4112 125.384 89.0432 124.824 86.9312 123.704C84.8512 122.584 83.2032 120.984 81.9872 118.904C80.8032 116.824 80.2112 114.392 80.2112 111.608C80.2112 108.856 80.8192 106.44 82.0352 104.36C83.2512 102.248 84.9152 100.632 87.0272 99.512C89.1392 98.392 91.5072 97.832 94.1312 97.832C96.7552 97.832 99.1232 98.392 101.235 99.512C103.347 100.632 105.011 102.248 106.227 104.36C107.443 106.44 108.051 108.856 108.051 111.608C108.051 114.36 107.427 116.792 106.179 118.904C104.963 120.984 103.283 122.584 101.139 123.704C99.0272 124.824 96.6592 125.384 94.0352 125.384ZM94.0352 118.28C95.6032 118.28 96.9312 117.704 98.0192 116.552C99.1392 115.4 99.6992 113.752 99.6992 111.608C99.6992 109.464 99.1552 107.816 98.0672 106.664C97.0112 105.512 95.6992 104.936 94.1312 104.936C92.5312 104.936 91.2032 105.512 90.1472 106.664C89.0912 107.784 88.5632 109.432 88.5632 111.608C88.5632 113.752 89.0752 115.4 90.0992 116.552C91.1552 117.704 92.4672 118.28 94.0352 118.28ZM146.582 97.928C149.91 97.928 152.55 98.936 154.502 100.952C156.486 102.968 157.478 105.768 157.478 109.352V125H149.318V110.456C149.318 108.728 148.854 107.4 147.926 106.472C147.03 105.512 145.782 105.032 144.182 105.032C142.582 105.032 141.318 105.512 140.39 106.472C139.494 107.4 139.046 108.728 139.046 110.456V125H130.886V110.456C130.886 108.728 130.422 107.4 129.494 106.472C128.598 105.512 127.35 105.032 125.75 105.032C124.15 105.032 122.886 105.512 121.958 106.472C121.062 107.4 120.614 108.728 120.614 110.456V125H112.406V98.216H120.614V101.576C121.446 100.456 122.534 99.576 123.878 98.936C125.222 98.264 126.742 97.928 128.438 97.928C130.454 97.928 132.246 98.36 133.814 99.224C135.414 100.088 136.662 101.32 137.558 102.92C138.486 101.448 139.75 100.248 141.35 99.32C142.95 98.392 144.694 97.928 146.582 97.928ZM174.114 125.384C171.778 125.384 169.698 124.984 167.874 124.184C166.05 123.384 164.61 122.296 163.554 120.92C162.498 119.512 161.906 117.944 161.778 116.216H169.89C169.986 117.144 170.418 117.896 171.186 118.472C171.954 119.048 172.898 119.336 174.018 119.336C175.042 119.336 175.826 119.144 176.37 118.76C176.946 118.344 177.234 117.816 177.234 117.176C177.234 116.408 176.834 115.848 176.034 115.496C175.234 115.112 173.938 114.696 172.146 114.248C170.226 113.8 168.626 113.336 167.346 112.856C166.066 112.344 164.962 111.56 164.034 110.504C163.106 109.416 162.642 107.96 162.642 106.136C162.642 104.6 163.058 103.208 163.89 101.96C164.754 100.68 166.002 99.672 167.634 98.936C169.298 98.2 171.266 97.832 173.538 97.832C176.898 97.832 179.538 98.664 181.458 100.328C183.41 101.992 184.53 104.2 184.818 106.952H177.234C177.106 106.024 176.69 105.288 175.986 104.744C175.314 104.2 174.418 103.928 173.298 103.928C172.338 103.928 171.602 104.12 171.09 104.504C170.578 104.856 170.322 105.352 170.322 105.992C170.322 106.76 170.722 107.336 171.522 107.72C172.354 108.104 173.634 108.488 175.362 108.872C177.346 109.384 178.962 109.896 180.21 110.408C181.458 110.888 182.546 111.688 183.474 112.808C184.434 113.896 184.93 115.368 184.962 117.224C184.962 118.792 184.514 120.2 183.618 121.448C182.754 122.664 181.49 123.624 179.826 124.328C178.194 125.032 176.29 125.384 174.114 125.384Z" fill="#2C512B"/>
<rect x="4" y="207" width="197" height="37" rx="10" fill="#457543"/>
<path d="M24.3495 233L20.8455 226.64H19.8615V233H15.7575V216.152H22.6455C23.9735 216.152 25.1015 216.384 26.0295 216.848C26.9735 217.312 27.6775 217.952 28.1415 218.768C28.6055 219.568 28.8375 220.464 28.8375 221.456C28.8375 222.576 28.5175 223.576 27.8775 224.456C27.2535 225.336 26.3255 225.96 25.0935 226.328L28.9815 233H24.3495ZM19.8615 223.736H22.4055C23.1575 223.736 23.7175 223.552 24.0855 223.184C24.4695 222.816 24.6615 222.296 24.6615 221.624C24.6615 220.984 24.4695 220.48 24.0855 220.112C23.7175 219.744 23.1575 219.56 22.4055 219.56H19.8615V223.736ZM35.5178 221.504C35.9178 220.88 36.4698 220.376 37.1738 219.992C37.8778 219.608 38.7018 219.416 39.6458 219.416C40.7498 219.416 41.7498 219.696 42.6458 220.256C43.5418 220.816 44.2458 221.616 44.7578 222.656C45.2858 223.696 45.5498 224.904 45.5498 226.28C45.5498 227.656 45.2858 228.872 44.7578 229.928C44.2458 230.968 43.5418 231.776 42.6458 232.352C41.7498 232.912 40.7498 233.192 39.6458 233.192C38.7178 233.192 37.8938 233 37.1738 232.616C36.4698 232.232 35.9178 231.736 35.5178 231.128V239.384H31.4138V219.608H35.5178V221.504ZM41.3738 226.28C41.3738 225.256 41.0858 224.456 40.5098 223.88C39.9498 223.288 39.2538 222.992 38.4218 222.992C37.6058 222.992 36.9098 223.288 36.3338 223.88C35.7738 224.472 35.4938 225.28 35.4938 226.304C35.4938 227.328 35.7738 228.136 36.3338 228.728C36.9098 229.32 37.6058 229.616 38.4218 229.616C39.2378 229.616 39.9338 229.32 40.5098 228.728C41.0858 228.12 41.3738 227.304 41.3738 226.28ZM49.6228 233.192C48.9028 233.192 48.3108 232.984 47.8468 232.568C47.3988 232.136 47.1748 231.608 47.1748 230.984C47.1748 230.344 47.3988 229.808 47.8468 229.376C48.3108 228.944 48.9028 228.728 49.6228 228.728C50.3268 228.728 50.9028 228.944 51.3508 229.376C51.8148 229.808 52.0468 230.344 52.0468 230.984C52.0468 231.608 51.8148 232.136 51.3508 232.568C50.9028 232.984 50.3268 233.192 49.6228 233.192ZM54.2123 220.424C54.2763 218.712 54.8363 217.392 55.8923 216.464C56.9483 215.536 58.3803 215.072 60.1883 215.072C61.3883 215.072 62.4123 215.28 63.2603 215.696C64.1243 216.112 64.7723 216.68 65.2043 217.4C65.6523 218.12 65.8763 218.928 65.8763 219.824C65.8763 220.88 65.6123 221.744 65.0843 222.416C64.5563 223.072 63.9403 223.52 63.2363 223.76V223.856C64.1483 224.16 64.8683 224.664 65.3963 225.368C65.9243 226.072 66.1883 226.976 66.1883 228.08C66.1883 229.072 65.9563 229.952 65.4923 230.72C65.0443 231.472 64.3803 232.064 63.5003 232.496C62.6363 232.928 61.6043 233.144 60.4043 233.144C58.4843 233.144 56.9483 232.672 55.7963 231.728C54.6603 230.784 54.0603 229.36 53.9963 227.456H57.9803C57.9963 228.16 58.1963 228.72 58.5803 229.136C58.9643 229.536 59.5243 229.736 60.2603 229.736C60.8843 229.736 61.3643 229.56 61.7003 229.208C62.0523 228.84 62.2283 228.36 62.2283 227.768C62.2283 227 61.9803 226.448 61.4843 226.112C61.0043 225.76 60.2283 225.584 59.1563 225.584H58.3883V222.248H59.1563C59.9723 222.248 60.6283 222.112 61.1243 221.84C61.6363 221.552 61.8923 221.048 61.8923 220.328C61.8923 219.752 61.7323 219.304 61.4123 218.984C61.0923 218.664 60.6523 218.504 60.0923 218.504C59.4843 218.504 59.0283 218.688 58.7243 219.056C58.4363 219.424 58.2683 219.88 58.2203 220.424H54.2123ZM80.9355 219.056H73.4475V222.368C73.7675 222.016 74.2155 221.728 74.7915 221.504C75.3675 221.28 75.9915 221.168 76.6635 221.168C77.8635 221.168 78.8555 221.44 79.6395 221.984C80.4395 222.528 81.0235 223.232 81.3915 224.096C81.7595 224.96 81.9435 225.896 81.9435 226.904C81.9435 228.776 81.4155 230.264 80.3595 231.368C79.3035 232.456 77.8155 233 75.8955 233C74.6155 233 73.5035 232.784 72.5595 232.352C71.6155 231.904 70.8875 231.288 70.3755 230.504C69.8635 229.72 69.5835 228.816 69.5355 227.792H73.5435C73.6395 228.288 73.8715 228.704 74.2395 229.04C74.6075 229.36 75.1115 229.52 75.7515 229.52C76.5035 229.52 77.0635 229.28 77.4315 228.8C77.7995 228.32 77.9835 227.68 77.9835 226.88C77.9835 226.096 77.7915 225.496 77.4075 225.08C77.0235 224.664 76.4635 224.456 75.7275 224.456C75.1835 224.456 74.7355 224.592 74.3835 224.864C74.0315 225.12 73.7995 225.464 73.6875 225.896H69.7275V215.456H80.9355V219.056ZM84.2089 224C84.2089 221.248 84.7369 219.08 85.7929 217.496C86.8649 215.912 88.5849 215.12 90.9529 215.12C93.3209 215.12 95.0329 215.912 96.0889 217.496C97.1609 219.08 97.6969 221.248 97.6969 224C97.6969 226.784 97.1609 228.968 96.0889 230.552C95.0329 232.136 93.3209 232.928 90.9529 232.928C88.5849 232.928 86.8649 232.136 85.7929 230.552C84.7369 228.968 84.2089 226.784 84.2089 224ZM93.6649 224C93.6649 222.384 93.4889 221.144 93.1369 220.28C92.7849 219.4 92.0569 218.96 90.9529 218.96C89.8489 218.96 89.1209 219.4 88.7689 220.28C88.4169 221.144 88.2409 222.384 88.2409 224C88.2409 225.088 88.3049 225.992 88.4329 226.712C88.5609 227.416 88.8169 227.992 89.2009 228.44C89.6009 228.872 90.1849 229.088 90.9529 229.088C91.7209 229.088 92.2969 228.872 92.6809 228.44C93.0809 227.992 93.3449 227.416 93.4729 226.712C93.6009 225.992 93.6649 225.088 93.6649 224ZM102.193 233.192C101.473 233.192 100.881 232.984 100.417 232.568C99.9692 232.136 99.7452 231.608 99.7452 230.984C99.7452 230.344 99.9692 229.808 100.417 229.376C100.881 228.944 101.473 228.728 102.193 228.728C102.897 228.728 103.473 228.944 103.921 229.376C104.385 229.808 104.617 230.344 104.617 230.984C104.617 231.608 104.385 232.136 103.921 232.568C103.473 232.984 102.897 233.192 102.193 233.192ZM106.639 224C106.639 221.248 107.167 219.08 108.223 217.496C109.295 215.912 111.015 215.12 113.383 215.12C115.751 215.12 117.463 215.912 118.519 217.496C119.591 219.08 120.127 221.248 120.127 224C120.127 226.784 119.591 228.968 118.519 230.552C117.463 232.136 115.751 232.928 113.383 232.928C111.015 232.928 109.295 232.136 108.223 230.552C107.167 228.968 106.639 226.784 106.639 224ZM116.095 224C116.095 222.384 115.919 221.144 115.567 220.28C115.215 219.4 114.487 218.96 113.383 218.96C112.279 218.96 111.551 219.4 111.199 220.28C110.847 221.144 110.671 222.384 110.671 224C110.671 225.088 110.735 225.992 110.863 226.712C110.991 227.416 111.247 227.992 111.631 228.44C112.031 228.872 112.615 229.088 113.383 229.088C114.151 229.088 114.727 228.872 115.111 228.44C115.511 227.992 115.775 227.416 115.903 226.712C116.031 225.992 116.095 225.088 116.095 224ZM122.295 224C122.295 221.248 122.823 219.08 123.879 217.496C124.951 215.912 126.671 215.12 129.039 215.12C131.407 215.12 133.119 215.912 134.175 217.496C135.247 219.08 135.783 221.248 135.783 224C135.783 226.784 135.247 228.968 134.175 230.552C133.119 232.136 131.407 232.928 129.039 232.928C126.671 232.928 124.951 232.136 123.879 230.552C122.823 228.968 122.295 226.784 122.295 224ZM131.751 224C131.751 222.384 131.575 221.144 131.223 220.28C130.871 219.4 130.143 218.96 129.039 218.96C127.935 218.96 127.207 219.4 126.855 220.28C126.503 221.144 126.327 222.384 126.327 224C126.327 225.088 126.391 225.992 126.519 226.712C126.647 227.416 126.903 227.992 127.287 228.44C127.687 228.872 128.271 229.088 129.039 229.088C129.807 229.088 130.383 228.872 130.767 228.44C131.167 227.992 131.431 227.416 131.559 226.712C131.687 225.992 131.751 225.088 131.751 224ZM137.951 224C137.951 221.248 138.479 219.08 139.535 217.496C140.607 215.912 142.327 215.12 144.695 215.12C147.063 215.12 148.775 215.912 149.831 217.496C150.903 219.08 151.439 221.248 151.439 224C151.439 226.784 150.903 228.968 149.831 230.552C148.775 232.136 147.063 232.928 144.695 232.928C142.327 232.928 140.607 232.136 139.535 230.552C138.479 228.968 137.951 226.784 137.951 224ZM147.407 224C147.407 222.384 147.231 221.144 146.879 220.28C146.527 219.4 145.799 218.96 144.695 218.96C143.591 218.96 142.863 219.4 142.511 220.28C142.159 221.144 141.983 222.384 141.983 224C141.983 225.088 142.047 225.992 142.175 226.712C142.303 227.416 142.559 227.992 142.943 228.44C143.343 228.872 143.927 229.088 144.695 229.088C145.463 229.088 146.039 228.872 146.423 228.44C146.823 227.992 147.087 227.416 147.215 226.712C147.343 225.992 147.407 225.088 147.407 224ZM158.431 229.208L155.767 236.096H153.151L154.543 229.208H158.431ZM160.498 224C160.498 221.248 161.026 219.08 162.082 217.496C163.154 215.912 164.874 215.12 167.242 215.12C169.61 215.12 171.322 215.912 172.378 217.496C173.45 219.08 173.986 221.248 173.986 224C173.986 226.784 173.45 228.968 172.378 230.552C171.322 232.136 169.61 232.928 167.242 232.928C164.874 232.928 163.154 232.136 162.082 230.552C161.026 228.968 160.498 226.784 160.498 224ZM169.954 224C169.954 222.384 169.778 221.144 169.426 220.28C169.074 219.4 168.346 218.96 167.242 218.96C166.138 218.96 165.41 219.4 165.058 220.28C164.706 221.144 164.53 222.384 164.53 224C164.53 225.088 164.594 225.992 164.722 226.712C164.85 227.416 165.106 227.992 165.49 228.44C165.89 228.872 166.474 229.088 167.242 229.088C168.01 229.088 168.586 228.872 168.97 228.44C169.37 227.992 169.634 227.416 169.762 226.712C169.89 225.992 169.954 225.088 169.954 224ZM176.154 224C176.154 221.248 176.682 219.08 177.738 217.496C178.81 215.912 180.53 215.12 182.898 215.12C185.266 215.12 186.978 215.912 188.034 217.496C189.106 219.08 189.642 221.248 189.642 224C189.642 226.784 189.106 228.968 188.034 230.552C186.978 232.136 185.266 232.928 182.898 232.928C180.53 232.928 178.81 232.136 177.738 230.552C176.682 228.968 176.154 226.784 176.154 224ZM185.61 224C185.61 222.384 185.434 221.144 185.082 220.28C184.73 219.4 184.002 218.96 182.898 218.96C181.794 218.96 181.066 219.4 180.714 220.28C180.362 221.144 180.186 222.384 180.186 224C180.186 225.088 180.25 225.992 180.378 226.712C180.506 227.416 180.762 227.992 181.146 228.44C181.546 228.872 182.13 229.088 182.898 229.088C183.666 229.088 184.242 228.872 184.626 228.44C185.026 227.992 185.29 227.416 185.418 226.712C185.546 225.992 185.61 225.088 185.61 224Z" fill="white"/>
<path d="M51.818 191.14C50.7914 191.14 49.8714 190.973 49.058 190.64C48.2447 190.307 47.5914 189.813 47.098 189.16C46.618 188.507 46.3647 187.72 46.338 186.8H49.978C50.0314 187.32 50.2114 187.72 50.518 188C50.8247 188.267 51.2247 188.4 51.718 188.4C52.2247 188.4 52.6247 188.287 52.918 188.06C53.2114 187.82 53.358 187.493 53.358 187.08C53.358 186.733 53.238 186.447 52.998 186.22C52.7714 185.993 52.4847 185.807 52.138 185.66C51.8047 185.513 51.3247 185.347 50.698 185.16C49.7914 184.88 49.0514 184.6 48.478 184.32C47.9047 184.04 47.4114 183.627 46.998 183.08C46.5847 182.533 46.378 181.82 46.378 180.94C46.378 179.633 46.8514 178.613 47.798 177.88C48.7447 177.133 49.978 176.76 51.498 176.76C53.0447 176.76 54.2914 177.133 55.238 177.88C56.1847 178.613 56.6914 179.64 56.758 180.96H53.058C53.0314 180.507 52.8647 180.153 52.558 179.9C52.2514 179.633 51.858 179.5 51.378 179.5C50.9647 179.5 50.6314 179.613 50.378 179.84C50.1247 180.053 49.998 180.367 49.998 180.78C49.998 181.233 50.2114 181.587 50.638 181.84C51.0647 182.093 51.7314 182.367 52.638 182.66C53.5447 182.967 54.278 183.26 54.838 183.54C55.4114 183.82 55.9047 184.227 56.318 184.76C56.7314 185.293 56.938 185.98 56.938 186.82C56.938 187.62 56.7314 188.347 56.318 189C55.918 189.653 55.3314 190.173 54.558 190.56C53.7847 190.947 52.8714 191.14 51.818 191.14ZM65.2627 188.1V191H63.5227C62.2827 191 61.3161 190.7 60.6227 190.1C59.9294 189.487 59.5827 188.493 59.5827 187.12V182.68H58.2227V179.84H59.5827V177.12H63.0027V179.84H65.2427V182.68H63.0027V187.16C63.0027 187.493 63.0827 187.733 63.2427 187.88C63.4027 188.027 63.6694 188.1 64.0427 188.1H65.2627ZM66.4877 185.4C66.4877 184.253 66.7011 183.247 67.1277 182.38C67.5677 181.513 68.1611 180.847 68.9077 180.38C69.6544 179.913 70.4877 179.68 71.4077 179.68C72.1944 179.68 72.8811 179.84 73.4677 180.16C74.0677 180.48 74.5277 180.9 74.8477 181.42V179.84H78.2677V191H74.8477V189.42C74.5144 189.94 74.0477 190.36 73.4477 190.68C72.8611 191 72.1744 191.16 71.3877 191.16C70.4811 191.16 69.6544 190.927 68.9077 190.46C68.1611 189.98 67.5677 189.307 67.1277 188.44C66.7011 187.56 66.4877 186.547 66.4877 185.4ZM74.8477 185.42C74.8477 184.567 74.6077 183.893 74.1277 183.4C73.6611 182.907 73.0877 182.66 72.4077 182.66C71.7277 182.66 71.1477 182.907 70.6677 183.4C70.2011 183.88 69.9677 184.547 69.9677 185.4C69.9677 186.253 70.2011 186.933 70.6677 187.44C71.1477 187.933 71.7277 188.18 72.4077 188.18C73.0877 188.18 73.6611 187.933 74.1277 187.44C74.6077 186.947 74.8477 186.273 74.8477 185.42ZM84.162 181.7C84.562 181.087 85.062 180.607 85.662 180.26C86.262 179.9 86.9286 179.72 87.662 179.72V183.34H86.722C85.8686 183.34 85.2286 183.527 84.802 183.9C84.3753 184.26 84.162 184.9 84.162 185.82V191H80.742V179.84H84.162V181.7ZM95.5166 188.1V191H93.7766C92.5366 191 91.57 190.7 90.8766 190.1C90.1833 189.487 89.8366 188.493 89.8366 187.12V182.68H88.4766V179.84H89.8366V177.12H93.2566V179.84H95.4966V182.68H93.2566V187.16C93.2566 187.493 93.3366 187.733 93.4966 187.88C93.6566 188.027 93.9233 188.1 94.2966 188.1H95.5166ZM110.8 176.96V179.7H105.08V182.66H109.36V185.32H105.08V191H101.66V176.96H110.8ZM116.017 181.7C116.417 181.087 116.917 180.607 117.517 180.26C118.117 179.9 118.784 179.72 119.517 179.72V183.34H118.577C117.724 183.34 117.084 183.527 116.657 183.9C116.231 184.26 116.017 184.9 116.017 185.82V191H112.597V179.84H116.017V181.7ZM126.232 191.16C125.139 191.16 124.152 190.927 123.272 190.46C122.405 189.993 121.719 189.327 121.212 188.46C120.719 187.593 120.472 186.58 120.472 185.42C120.472 184.273 120.725 183.267 121.232 182.4C121.739 181.52 122.432 180.847 123.312 180.38C124.192 179.913 125.179 179.68 126.272 179.68C127.365 179.68 128.352 179.913 129.232 180.38C130.112 180.847 130.805 181.52 131.312 182.4C131.819 183.267 132.072 184.273 132.072 185.42C132.072 186.567 131.812 187.58 131.292 188.46C130.785 189.327 130.085 189.993 129.192 190.46C128.312 190.927 127.325 191.16 126.232 191.16ZM126.232 188.2C126.885 188.2 127.439 187.96 127.892 187.48C128.359 187 128.592 186.313 128.592 185.42C128.592 184.527 128.365 183.84 127.912 183.36C127.472 182.88 126.925 182.64 126.272 182.64C125.605 182.64 125.052 182.88 124.612 183.36C124.172 183.827 123.952 184.513 123.952 185.42C123.952 186.313 124.165 187 124.592 187.48C125.032 187.96 125.579 188.2 126.232 188.2ZM148.126 179.72C149.513 179.72 150.613 180.14 151.426 180.98C152.253 181.82 152.666 182.987 152.666 184.48V191H149.266V184.94C149.266 184.22 149.073 183.667 148.686 183.28C148.313 182.88 147.793 182.68 147.126 182.68C146.46 182.68 145.933 182.88 145.546 183.28C145.173 183.667 144.986 184.22 144.986 184.94V191H141.586V184.94C141.586 184.22 141.393 183.667 141.006 183.28C140.633 182.88 140.113 182.68 139.446 182.68C138.78 182.68 138.253 182.88 137.866 183.28C137.493 183.667 137.306 184.22 137.306 184.94V191H133.886V179.84H137.306V181.24C137.653 180.773 138.106 180.407 138.666 180.14C139.226 179.86 139.86 179.72 140.566 179.72C141.406 179.72 142.153 179.9 142.806 180.26C143.473 180.62 143.993 181.133 144.366 181.8C144.753 181.187 145.28 180.687 145.946 180.3C146.613 179.913 147.34 179.72 148.126 179.72ZM156.658 191.16C156.058 191.16 155.565 190.987 155.178 190.64C154.805 190.28 154.618 189.84 154.618 189.32C154.618 188.787 154.805 188.34 155.178 187.98C155.565 187.62 156.058 187.44 156.658 187.44C157.245 187.44 157.725 187.62 158.098 187.98C158.485 188.34 158.678 188.787 158.678 189.32C158.678 189.84 158.485 190.28 158.098 190.64C157.725 190.987 157.245 191.16 156.658 191.16ZM156.658 183.02C156.058 183.02 155.565 182.847 155.178 182.5C154.805 182.14 154.618 181.7 154.618 181.18C154.618 180.647 154.805 180.2 155.178 179.84C155.565 179.48 156.058 179.3 156.658 179.3C157.245 179.3 157.725 179.48 158.098 179.84C158.485 180.2 158.678 180.647 158.678 181.18C158.678 181.7 158.485 182.14 158.098 182.5C157.725 182.847 157.245 183.02 156.658 183.02Z" fill="black"/>
</svg>
