<svg width="216" height="109" viewBox="0 0 216 109" fill="none" xmlns="http://www.w3.org/2000/svg">
<path d="M75.2069 2.304V36H66.9989V22.128H54.2309V36H46.0229V2.304H54.2309V15.504H66.9989V2.304H75.2069ZM93.3243 36.384C90.7003 36.384 88.3323 35.824 86.2203 34.704C84.1403 33.584 82.4923 31.984 81.2763 29.904C80.0923 27.824 79.5003 25.392 79.5003 22.608C79.5003 19.856 80.1083 17.44 81.3242 15.36C82.5403 13.248 84.2043 11.632 86.3163 10.512C88.4283 9.392 90.7963 8.832 93.4203 8.832C96.0443 8.832 98.4123 9.392 100.524 10.512C102.636 11.632 104.3 13.248 105.516 15.36C106.732 17.44 107.34 19.856 107.34 22.608C107.34 25.36 106.716 27.792 105.468 29.904C104.252 31.984 102.572 33.584 100.428 34.704C98.3163 35.824 95.9483 36.384 93.3243 36.384ZM93.3243 29.28C94.8923 29.28 96.2203 28.704 97.3083 27.552C98.4283 26.4 98.9883 24.752 98.9883 22.608C98.9883 20.464 98.4443 18.816 97.3563 17.664C96.3003 16.512 94.9883 15.936 93.4203 15.936C91.8203 15.936 90.4923 16.512 89.4363 17.664C88.3803 18.784 87.8523 20.432 87.8523 22.608C87.8523 24.752 88.3643 26.4 89.3883 27.552C90.4443 28.704 91.7563 29.28 93.3243 29.28ZM126.623 29.04V36H122.447C119.471 36 117.151 35.28 115.487 33.84C113.823 32.368 112.991 29.984 112.991 26.688V16.032H109.727V9.216H112.991V2.688H121.199V9.216H126.575V16.032H121.199V26.784C121.199 27.584 121.391 28.16 121.775 28.512C122.159 28.864 122.799 29.04 123.695 29.04H126.623ZM156.443 22.176C156.443 22.944 156.395 23.744 156.299 24.576H137.723C137.851 26.24 138.379 27.52 139.307 28.416C140.267 29.28 141.435 29.712 142.811 29.712C144.859 29.712 146.283 28.848 147.083 27.12H155.819C155.371 28.88 154.555 30.464 153.371 31.872C152.219 33.28 150.763 34.384 149.003 35.184C147.243 35.984 145.275 36.384 143.099 36.384C140.475 36.384 138.139 35.824 136.091 34.704C134.043 33.584 132.443 31.984 131.291 29.904C130.139 27.824 129.563 25.392 129.563 22.608C129.563 19.824 130.123 17.392 131.243 15.312C132.395 13.232 133.995 11.632 136.043 10.512C138.091 9.392 140.443 8.832 143.099 8.832C145.691 8.832 147.995 9.376 150.011 10.464C152.027 11.552 153.595 13.104 154.715 15.12C155.867 17.136 156.443 19.488 156.443 22.176ZM148.043 20.016C148.043 18.608 147.563 17.488 146.603 16.656C145.643 15.824 144.443 15.408 143.003 15.408C141.627 15.408 140.459 15.808 139.499 16.608C138.571 17.408 137.995 18.544 137.771 20.016H148.043ZM168.981 0.48V36H160.773V0.48H168.981ZM22.2323 74.304V80.88H8.50431V87.984H18.7763V94.368H8.50431V108H0.296313V74.304H22.2323ZM24.9143 94.56C24.9143 91.808 25.4263 89.392 26.4503 87.312C27.5063 85.232 28.9303 83.632 30.7223 82.512C32.5143 81.392 34.5143 80.832 36.7223 80.832C38.6103 80.832 40.2583 81.216 41.6663 81.984C43.1063 82.752 44.2103 83.76 44.9783 85.008V81.216H53.1863V108H44.9783V104.208C44.1783 105.456 43.0583 106.464 41.6183 107.232C40.2103 108 38.5623 108.384 36.6743 108.384C34.4983 108.384 32.5143 107.824 30.7223 106.704C28.9303 105.552 27.5063 103.936 26.4503 101.856C25.4263 99.744 24.9143 97.312 24.9143 94.56ZM44.9783 94.608C44.9783 92.56 44.4023 90.944 43.2503 89.76C42.1303 88.576 40.7543 87.984 39.1223 87.984C37.4903 87.984 36.0983 88.576 34.9463 89.76C33.8263 90.912 33.2663 92.512 33.2663 94.56C33.2663 96.608 33.8263 98.24 34.9463 99.456C36.0983 100.64 37.4903 101.232 39.1223 101.232C40.7543 101.232 42.1303 100.64 43.2503 99.456C44.4023 98.272 44.9783 96.656 44.9783 94.608ZM57.4924 94.608C57.4924 91.824 58.0524 89.392 59.1724 87.312C60.3244 85.232 61.9084 83.632 63.9244 82.512C65.9724 81.392 68.3084 80.832 70.9324 80.832C74.2924 80.832 77.0924 81.712 79.3324 83.472C81.6044 85.232 83.0924 87.712 83.7964 90.912H75.0604C74.3244 88.864 72.9004 87.84 70.7884 87.84C69.2844 87.84 68.0844 88.432 67.1884 89.616C66.2924 90.768 65.8444 92.432 65.8444 94.608C65.8444 96.784 66.2924 98.464 67.1884 99.648C68.0844 100.8 69.2844 101.376 70.7884 101.376C72.9004 101.376 74.3244 100.352 75.0604 98.304H83.7964C83.0924 101.44 81.6044 103.904 79.3324 105.696C77.0604 107.488 74.2604 108.384 70.9324 108.384C68.3084 108.384 65.9724 107.824 63.9244 106.704C61.9084 105.584 60.3244 103.984 59.1724 101.904C58.0524 99.824 57.4924 97.392 57.4924 94.608ZM92.3149 78.432C90.8749 78.432 89.6909 78.016 88.7629 77.184C87.8669 76.32 87.4189 75.264 87.4189 74.016C87.4189 72.736 87.8669 71.68 88.7629 70.848C89.6909 69.984 90.8749 69.552 92.3149 69.552C93.7229 69.552 94.8749 69.984 95.7709 70.848C96.6989 71.68 97.1629 72.736 97.1629 74.016C97.1629 75.264 96.6989 76.32 95.7709 77.184C94.8749 78.016 93.7229 78.432 92.3149 78.432ZM96.3949 81.216V108H88.1869V81.216H96.3949ZM110.551 72.48V108H102.343V72.48H110.551ZM120.627 78.432C119.187 78.432 118.003 78.016 117.075 77.184C116.179 76.32 115.731 75.264 115.731 74.016C115.731 72.736 116.179 71.68 117.075 70.848C118.003 69.984 119.187 69.552 120.627 69.552C122.035 69.552 123.187 69.984 124.083 70.848C125.011 71.68 125.475 72.736 125.475 74.016C125.475 75.264 125.011 76.32 124.083 77.184C123.187 78.016 122.035 78.432 120.627 78.432ZM124.707 81.216V108H116.499V81.216H124.707ZM145.584 101.04V108H141.408C138.432 108 136.112 107.28 134.448 105.84C132.784 104.368 131.952 101.984 131.952 98.688V88.032H128.688V81.216H131.952V74.688H140.16V81.216H145.536V88.032H140.16V98.784C140.16 99.584 140.352 100.16 140.736 100.512C141.12 100.864 141.76 101.04 142.656 101.04H145.584ZM154.284 78.432C152.844 78.432 151.66 78.016 150.732 77.184C149.836 76.32 149.388 75.264 149.388 74.016C149.388 72.736 149.836 71.68 150.732 70.848C151.66 69.984 152.844 69.552 154.284 69.552C155.692 69.552 156.844 69.984 157.74 70.848C158.668 71.68 159.132 72.736 159.132 74.016C159.132 75.264 158.668 76.32 157.74 77.184C156.844 78.016 155.692 78.432 154.284 78.432ZM158.364 81.216V108H150.156V81.216H158.364ZM189.56 94.176C189.56 94.944 189.512 95.744 189.416 96.576H170.84C170.968 98.24 171.496 99.52 172.424 100.416C173.384 101.28 174.552 101.712 175.928 101.712C177.976 101.712 179.4 100.848 180.2 99.12H188.936C188.488 100.88 187.672 102.464 186.488 103.872C185.336 105.28 183.88 106.384 182.12 107.184C180.36 107.984 178.392 108.384 176.216 108.384C173.592 108.384 171.256 107.824 169.208 106.704C167.16 105.584 165.56 103.984 164.408 101.904C163.256 99.824 162.68 97.392 162.68 94.608C162.68 91.824 163.24 89.392 164.36 87.312C165.512 85.232 167.112 83.632 169.16 82.512C171.208 81.392 173.56 80.832 176.216 80.832C178.808 80.832 181.112 81.376 183.128 82.464C185.144 83.552 186.712 85.104 187.832 87.12C188.984 89.136 189.56 91.488 189.56 94.176ZM181.16 92.016C181.16 90.608 180.68 89.488 179.72 88.656C178.76 87.824 177.56 87.408 176.12 87.408C174.744 87.408 173.576 87.808 172.616 88.608C171.688 89.408 171.112 90.544 170.888 92.016H181.16ZM204.786 108.384C202.45 108.384 200.37 107.984 198.546 107.184C196.722 106.384 195.282 105.296 194.226 103.92C193.17 102.512 192.578 100.944 192.45 99.216H200.562C200.658 100.144 201.09 100.896 201.858 101.472C202.626 102.048 203.57 102.336 204.69 102.336C205.714 102.336 206.498 102.144 207.042 101.76C207.618 101.344 207.906 100.816 207.906 100.176C207.906 99.408 207.506 98.848 206.706 98.496C205.906 98.112 204.61 97.696 202.818 97.248C200.898 96.8 199.298 96.336 198.018 95.856C196.738 95.344 195.634 94.56 194.706 93.504C193.778 92.416 193.314 90.96 193.314 89.136C193.314 87.6 193.73 86.208 194.562 84.96C195.426 83.68 196.674 82.672 198.306 81.936C199.97 81.2 201.938 80.832 204.21 80.832C207.57 80.832 210.21 81.664 212.13 83.328C214.082 84.992 215.202 87.2 215.49 89.952H207.906C207.778 89.024 207.362 88.288 206.658 87.744C205.986 87.2 205.09 86.928 203.97 86.928C203.01 86.928 202.274 87.12 201.762 87.504C201.25 87.856 200.994 88.352 200.994 88.992C200.994 89.76 201.394 90.336 202.194 90.72C203.026 91.104 204.306 91.488 206.034 91.872C208.018 92.384 209.634 92.896 210.882 93.408C212.13 93.888 213.218 94.688 214.146 95.808C215.106 96.896 215.602 98.368 215.634 100.224C215.634 101.792 215.186 103.2 214.29 104.448C213.426 105.664 212.162 106.624 210.498 107.328C208.866 108.032 206.962 108.384 204.786 108.384Z" fill="#2C512B"/>
</svg>
