<svg width="204" height="244" viewBox="0 0 204 244" fill="none" xmlns="http://www.w3.org/2000/svg">
<path d="M45.1781 19.304C48.7301 19.304 51.8341 20.008 54.4901 21.416C57.1461 22.824 59.1941 24.808 60.6341 27.368C62.1061 29.896 62.8421 32.824 62.8421 36.152C62.8421 39.448 62.1061 42.376 60.6341 44.936C59.1941 47.496 57.1301 49.48 54.4421 50.888C51.7861 52.296 48.6981 53 45.1781 53H32.5541V19.304H45.1781ZM44.6501 45.896C47.7541 45.896 50.1701 45.048 51.8981 43.352C53.6261 41.656 54.4901 39.256 54.4901 36.152C54.4901 33.048 53.6261 30.632 51.8981 28.904C50.1701 27.176 47.7541 26.312 44.6501 26.312H40.7621V45.896H44.6501ZM92.6771 39.176C92.6771 39.944 92.6291 40.744 92.5331 41.576H73.9571C74.0851 43.24 74.6131 44.52 75.5411 45.416C76.5011 46.28 77.6691 46.712 79.0451 46.712C81.0931 46.712 82.5171 45.848 83.3171 44.12H92.0531C91.6051 45.88 90.7891 47.464 89.6051 48.872C88.4531 50.28 86.9971 51.384 85.2371 52.184C83.4771 52.984 81.5091 53.384 79.3331 53.384C76.7091 53.384 74.3731 52.824 72.3251 51.704C70.2771 50.584 68.6771 48.984 67.5251 46.904C66.3731 44.824 65.7971 42.392 65.7971 39.608C65.7971 36.824 66.3571 34.392 67.4771 32.312C68.6291 30.232 70.2291 28.632 72.2771 27.512C74.3251 26.392 76.6771 25.832 79.3331 25.832C81.9251 25.832 84.2291 26.376 86.2451 27.464C88.2611 28.552 89.8291 30.104 90.9491 32.12C92.1011 34.136 92.6771 36.488 92.6771 39.176ZM84.2771 37.016C84.2771 35.608 83.7971 34.488 82.8371 33.656C81.8771 32.824 80.6771 32.408 79.2371 32.408C77.8611 32.408 76.6931 32.808 75.7331 33.608C74.8051 34.408 74.2291 35.544 74.0051 37.016H84.2771ZM111.935 46.04V53H107.759C104.783 53 102.463 52.28 100.799 50.84C99.1353 49.368 98.3033 46.984 98.3033 43.688V33.032H95.0393V26.216H98.3033V19.688H106.511V26.216H111.887V33.032H106.511V43.784C106.511 44.584 106.703 45.16 107.087 45.512C107.471 45.864 108.111 46.04 109.007 46.04H111.935ZM114.875 39.56C114.875 36.808 115.387 34.392 116.411 32.312C117.467 30.232 118.891 28.632 120.683 27.512C122.475 26.392 124.475 25.832 126.683 25.832C128.571 25.832 130.219 26.216 131.627 26.984C133.067 27.752 134.171 28.76 134.939 30.008V26.216H143.147V53H134.939V49.208C134.139 50.456 133.019 51.464 131.579 52.232C130.171 53 128.523 53.384 126.635 53.384C124.459 53.384 122.475 52.824 120.683 51.704C118.891 50.552 117.467 48.936 116.411 46.856C115.387 44.744 114.875 42.312 114.875 39.56ZM134.939 39.608C134.939 37.56 134.363 35.944 133.211 34.76C132.091 33.576 130.715 32.984 129.083 32.984C127.451 32.984 126.059 33.576 124.907 34.76C123.787 35.912 123.227 37.512 123.227 39.56C123.227 41.608 123.787 43.24 124.907 44.456C126.059 45.64 127.451 46.232 129.083 46.232C130.715 46.232 132.091 45.64 133.211 44.456C134.363 43.272 134.939 41.656 134.939 39.608ZM153.213 23.432C151.773 23.432 150.589 23.016 149.661 22.184C148.765 21.32 148.317 20.264 148.317 19.016C148.317 17.736 148.765 16.68 149.661 15.848C150.589 14.984 151.773 14.552 153.213 14.552C154.621 14.552 155.773 14.984 156.669 15.848C157.597 16.68 158.061 17.736 158.061 19.016C158.061 20.264 157.597 21.32 156.669 22.184C155.773 23.016 154.621 23.432 153.213 23.432ZM157.293 26.216V53H149.085V26.216H157.293ZM171.45 17.48V53H163.242V17.48H171.45ZM37.1522 125L30.1442 112.28H28.1762V125H19.9682V91.304H33.7442C36.4002 91.304 38.6562 91.768 40.5122 92.696C42.4002 93.624 43.8082 94.904 44.7362 96.536C45.6642 98.136 46.1282 99.928 46.1282 101.912C46.1282 104.152 45.4882 106.152 44.2082 107.912C42.9602 109.672 41.1042 110.92 38.6402 111.656L46.4162 125H37.1522ZM28.1762 106.472H33.2642C34.7682 106.472 35.8882 106.104 36.6242 105.368C37.3922 104.632 37.7762 103.592 37.7762 102.248C37.7762 100.968 37.3922 99.96 36.6242 99.224C35.8882 98.488 34.7682 98.12 33.2642 98.12H28.1762V106.472ZM63.4727 125.384C60.8487 125.384 58.4807 124.824 56.3687 123.704C54.2887 122.584 52.6407 120.984 51.4247 118.904C50.2407 116.824 49.6487 114.392 49.6487 111.608C49.6487 108.856 50.2567 106.44 51.4727 104.36C52.6887 102.248 54.3527 100.632 56.4647 99.512C58.5767 98.392 60.9447 97.832 63.5687 97.832C66.1927 97.832 68.5607 98.392 70.6727 99.512C72.7847 100.632 74.4487 102.248 75.6647 104.36C76.8807 106.44 77.4887 108.856 77.4887 111.608C77.4887 114.36 76.8647 116.792 75.6167 118.904C74.4007 120.984 72.7207 122.584 70.5767 123.704C68.4647 124.824 66.0967 125.384 63.4727 125.384ZM63.4727 118.28C65.0407 118.28 66.3687 117.704 67.4567 116.552C68.5767 115.4 69.1367 113.752 69.1367 111.608C69.1367 109.464 68.5927 107.816 67.5047 106.664C66.4487 105.512 65.1367 104.936 63.5687 104.936C61.9687 104.936 60.6407 105.512 59.5847 106.664C58.5287 107.784 58.0007 109.432 58.0007 111.608C58.0007 113.752 58.5127 115.4 59.5367 116.552C60.5927 117.704 61.9047 118.28 63.4727 118.28ZM94.0352 125.384C91.4112 125.384 89.0432 124.824 86.9312 123.704C84.8512 122.584 83.2032 120.984 81.9872 118.904C80.8032 116.824 80.2112 114.392 80.2112 111.608C80.2112 108.856 80.8192 106.44 82.0352 104.36C83.2512 102.248 84.9152 100.632 87.0272 99.512C89.1392 98.392 91.5072 97.832 94.1312 97.832C96.7552 97.832 99.1232 98.392 101.235 99.512C103.347 100.632 105.011 102.248 106.227 104.36C107.443 106.44 108.051 108.856 108.051 111.608C108.051 114.36 107.427 116.792 106.179 118.904C104.963 120.984 103.283 122.584 101.139 123.704C99.0272 124.824 96.6592 125.384 94.0352 125.384ZM94.0352 118.28C95.6032 118.28 96.9312 117.704 98.0192 116.552C99.1392 115.4 99.6992 113.752 99.6992 111.608C99.6992 109.464 99.1552 107.816 98.0672 106.664C97.0112 105.512 95.6992 104.936 94.1312 104.936C92.5312 104.936 91.2032 105.512 90.1472 106.664C89.0912 107.784 88.5632 109.432 88.5632 111.608C88.5632 113.752 89.0752 115.4 90.0992 116.552C91.1552 117.704 92.4672 118.28 94.0352 118.28ZM146.582 97.928C149.91 97.928 152.55 98.936 154.502 100.952C156.486 102.968 157.478 105.768 157.478 109.352V125H149.318V110.456C149.318 108.728 148.854 107.4 147.926 106.472C147.03 105.512 145.782 105.032 144.182 105.032C142.582 105.032 141.318 105.512 140.39 106.472C139.494 107.4 139.046 108.728 139.046 110.456V125H130.886V110.456C130.886 108.728 130.422 107.4 129.494 106.472C128.598 105.512 127.35 105.032 125.75 105.032C124.15 105.032 122.886 105.512 121.958 106.472C121.062 107.4 120.614 108.728 120.614 110.456V125H112.406V98.216H120.614V101.576C121.446 100.456 122.534 99.576 123.878 98.936C125.222 98.264 126.742 97.928 128.438 97.928C130.454 97.928 132.246 98.36 133.814 99.224C135.414 100.088 136.662 101.32 137.558 102.92C138.486 101.448 139.75 100.248 141.35 99.32C142.95 98.392 144.694 97.928 146.582 97.928ZM174.114 125.384C171.778 125.384 169.698 124.984 167.874 124.184C166.05 123.384 164.61 122.296 163.554 120.92C162.498 119.512 161.906 117.944 161.778 116.216H169.89C169.986 117.144 170.418 117.896 171.186 118.472C171.954 119.048 172.898 119.336 174.018 119.336C175.042 119.336 175.826 119.144 176.37 118.76C176.946 118.344 177.234 117.816 177.234 117.176C177.234 116.408 176.834 115.848 176.034 115.496C175.234 115.112 173.938 114.696 172.146 114.248C170.226 113.8 168.626 113.336 167.346 112.856C166.066 112.344 164.962 111.56 164.034 110.504C163.106 109.416 162.642 107.96 162.642 106.136C162.642 104.6 163.058 103.208 163.89 101.96C164.754 100.68 166.002 99.672 167.634 98.936C169.298 98.2 171.266 97.832 173.538 97.832C176.898 97.832 179.538 98.664 181.458 100.328C183.41 101.992 184.53 104.2 184.818 106.952H177.234C177.106 106.024 176.69 105.288 175.986 104.744C175.314 104.2 174.418 103.928 173.298 103.928C172.338 103.928 171.602 104.12 171.09 104.504C170.578 104.856 170.322 105.352 170.322 105.992C170.322 106.76 170.722 107.336 171.522 107.72C172.354 108.104 173.634 108.488 175.362 108.872C177.346 109.384 178.962 109.896 180.21 110.408C181.458 110.888 182.546 111.688 183.474 112.808C184.434 113.896 184.93 115.368 184.962 117.224C184.962 118.792 184.514 120.2 183.618 121.448C182.754 122.664 181.49 123.624 179.826 124.328C178.194 125.032 176.29 125.384 174.114 125.384Z" fill="#2C512B"/>
<rect x="4" y="207" width="197" height="37" rx="10" fill="#457543"/>
<path d="M26.3495 233L22.8455 226.64H21.8615V233H17.7575V216.152H24.6455C25.9735 216.152 27.1015 216.384 28.0295 216.848C28.9735 217.312 29.6775 217.952 30.1415 218.768C30.6055 219.568 30.8375 220.464 30.8375 221.456C30.8375 222.576 30.5175 223.576 29.8775 224.456C29.2535 225.336 28.3255 225.96 27.0935 226.328L30.9815 233H26.3495ZM21.8615 223.736H24.4055C25.1575 223.736 25.7175 223.552 26.0855 223.184C26.4695 222.816 26.6615 222.296 26.6615 221.624C26.6615 220.984 26.4695 220.48 26.0855 220.112C25.7175 219.744 25.1575 219.56 24.4055 219.56H21.8615V223.736ZM37.5178 221.504C37.9178 220.88 38.4698 220.376 39.1738 219.992C39.8778 219.608 40.7018 219.416 41.6458 219.416C42.7498 219.416 43.7498 219.696 44.6458 220.256C45.5418 220.816 46.2458 221.616 46.7578 222.656C47.2858 223.696 47.5498 224.904 47.5498 226.28C47.5498 227.656 47.2858 228.872 46.7578 229.928C46.2458 230.968 45.5418 231.776 44.6458 232.352C43.7498 232.912 42.7498 233.192 41.6458 233.192C40.7178 233.192 39.8938 233 39.1738 232.616C38.4698 232.232 37.9178 231.736 37.5178 231.128V239.384H33.4138V219.608H37.5178V221.504ZM43.3738 226.28C43.3738 225.256 43.0858 224.456 42.5098 223.88C41.9498 223.288 41.2538 222.992 40.4218 222.992C39.6058 222.992 38.9098 223.288 38.3338 223.88C37.7738 224.472 37.4938 225.28 37.4938 226.304C37.4938 227.328 37.7738 228.136 38.3338 228.728C38.9098 229.32 39.6058 229.616 40.4218 229.616C41.2378 229.616 41.9338 229.32 42.5098 228.728C43.0858 228.12 43.3738 227.304 43.3738 226.28ZM51.6228 233.192C50.9028 233.192 50.3108 232.984 49.8468 232.568C49.3988 232.136 49.1748 231.608 49.1748 230.984C49.1748 230.344 49.3988 229.808 49.8468 229.376C50.3108 228.944 50.9028 228.728 51.6228 228.728C52.3268 228.728 52.9028 228.944 53.3508 229.376C53.8148 229.808 54.0468 230.344 54.0468 230.984C54.0468 231.608 53.8148 232.136 53.3508 232.568C52.9028 232.984 52.3268 233.192 51.6228 233.192ZM56.2123 220.424C56.2763 218.712 56.8363 217.392 57.8923 216.464C58.9483 215.536 60.3803 215.072 62.1883 215.072C63.3883 215.072 64.4123 215.28 65.2603 215.696C66.1243 216.112 66.7723 216.68 67.2043 217.4C67.6523 218.12 67.8763 218.928 67.8763 219.824C67.8763 220.88 67.6123 221.744 67.0843 222.416C66.5563 223.072 65.9403 223.52 65.2363 223.76V223.856C66.1483 224.16 66.8683 224.664 67.3963 225.368C67.9243 226.072 68.1883 226.976 68.1883 228.08C68.1883 229.072 67.9563 229.952 67.4923 230.72C67.0443 231.472 66.3803 232.064 65.5003 232.496C64.6363 232.928 63.6043 233.144 62.4043 233.144C60.4843 233.144 58.9483 232.672 57.7963 231.728C56.6603 230.784 56.0603 229.36 55.9963 227.456H59.9803C59.9963 228.16 60.1963 228.72 60.5803 229.136C60.9643 229.536 61.5243 229.736 62.2603 229.736C62.8843 229.736 63.3643 229.56 63.7003 229.208C64.0523 228.84 64.2283 228.36 64.2283 227.768C64.2283 227 63.9803 226.448 63.4843 226.112C63.0043 225.76 62.2283 225.584 61.1563 225.584H60.3883V222.248H61.1563C61.9723 222.248 62.6283 222.112 63.1243 221.84C63.6363 221.552 63.8923 221.048 63.8923 220.328C63.8923 219.752 63.7323 219.304 63.4123 218.984C63.0923 218.664 62.6523 218.504 62.0923 218.504C61.4843 218.504 61.0283 218.688 60.7243 219.056C60.4363 219.424 60.2683 219.88 60.2203 220.424H56.2123ZM82.9355 219.056H75.4475V222.368C75.7675 222.016 76.2155 221.728 76.7915 221.504C77.3675 221.28 77.9915 221.168 78.6635 221.168C79.8635 221.168 80.8555 221.44 81.6395 221.984C82.4395 222.528 83.0235 223.232 83.3915 224.096C83.7595 224.96 83.9435 225.896 83.9435 226.904C83.9435 228.776 83.4155 230.264 82.3595 231.368C81.3035 232.456 79.8155 233 77.8955 233C76.6155 233 75.5035 232.784 74.5595 232.352C73.6155 231.904 72.8875 231.288 72.3755 230.504C71.8635 229.72 71.5835 228.816 71.5355 227.792H75.5435C75.6395 228.288 75.8715 228.704 76.2395 229.04C76.6075 229.36 77.1115 229.52 77.7515 229.52C78.5035 229.52 79.0635 229.28 79.4315 228.8C79.7995 228.32 79.9835 227.68 79.9835 226.88C79.9835 226.096 79.7915 225.496 79.4075 225.08C79.0235 224.664 78.4635 224.456 77.7275 224.456C77.1835 224.456 76.7355 224.592 76.3835 224.864C76.0315 225.12 75.7995 225.464 75.6875 225.896H71.7275V215.456H82.9355V219.056ZM86.2089 224C86.2089 221.248 86.7369 219.08 87.7929 217.496C88.8649 215.912 90.5849 215.12 92.9529 215.12C95.3209 215.12 97.0329 215.912 98.0889 217.496C99.1609 219.08 99.6969 221.248 99.6969 224C99.6969 226.784 99.1609 228.968 98.0889 230.552C97.0329 232.136 95.3209 232.928 92.9529 232.928C90.5849 232.928 88.8649 232.136 87.7929 230.552C86.7369 228.968 86.2089 226.784 86.2089 224ZM95.6649 224C95.6649 222.384 95.4889 221.144 95.1369 220.28C94.7849 219.4 94.0569 218.96 92.9529 218.96C91.8489 218.96 91.1209 219.4 90.7689 220.28C90.4169 221.144 90.2409 222.384 90.2409 224C90.2409 225.088 90.3049 225.992 90.4329 226.712C90.5609 227.416 90.8169 227.992 91.2009 228.44C91.6009 228.872 92.1849 229.088 92.9529 229.088C93.7209 229.088 94.2969 228.872 94.6809 228.44C95.0809 227.992 95.3449 227.416 95.4729 226.712C95.6009 225.992 95.6649 225.088 95.6649 224ZM104.193 233.192C103.473 233.192 102.881 232.984 102.417 232.568C101.969 232.136 101.745 231.608 101.745 230.984C101.745 230.344 101.969 229.808 102.417 229.376C102.881 228.944 103.473 228.728 104.193 228.728C104.897 228.728 105.473 228.944 105.921 229.376C106.385 229.808 106.617 230.344 106.617 230.984C106.617 231.608 106.385 232.136 105.921 232.568C105.473 232.984 104.897 233.192 104.193 233.192ZM108.639 224C108.639 221.248 109.167 219.08 110.223 217.496C111.295 215.912 113.015 215.12 115.383 215.12C117.751 215.12 119.463 215.912 120.519 217.496C121.591 219.08 122.127 221.248 122.127 224C122.127 226.784 121.591 228.968 120.519 230.552C119.463 232.136 117.751 232.928 115.383 232.928C113.015 232.928 111.295 232.136 110.223 230.552C109.167 228.968 108.639 226.784 108.639 224ZM118.095 224C118.095 222.384 117.919 221.144 117.567 220.28C117.215 219.4 116.487 218.96 115.383 218.96C114.279 218.96 113.551 219.4 113.199 220.28C112.847 221.144 112.671 222.384 112.671 224C112.671 225.088 112.735 225.992 112.863 226.712C112.991 227.416 113.247 227.992 113.631 228.44C114.031 228.872 114.615 229.088 115.383 229.088C116.151 229.088 116.727 228.872 117.111 228.44C117.511 227.992 117.775 227.416 117.903 226.712C118.031 225.992 118.095 225.088 118.095 224ZM124.295 224C124.295 221.248 124.823 219.08 125.879 217.496C126.951 215.912 128.671 215.12 131.039 215.12C133.407 215.12 135.119 215.912 136.175 217.496C137.247 219.08 137.783 221.248 137.783 224C137.783 226.784 137.247 228.968 136.175 230.552C135.119 232.136 133.407 232.928 131.039 232.928C128.671 232.928 126.951 232.136 125.879 230.552C124.823 228.968 124.295 226.784 124.295 224ZM133.751 224C133.751 222.384 133.575 221.144 133.223 220.28C132.871 219.4 132.143 218.96 131.039 218.96C129.935 218.96 129.207 219.4 128.855 220.28C128.503 221.144 128.327 222.384 128.327 224C128.327 225.088 128.391 225.992 128.519 226.712C128.647 227.416 128.903 227.992 129.287 228.44C129.687 228.872 130.271 229.088 131.039 229.088C131.807 229.088 132.383 228.872 132.767 228.44C133.167 227.992 133.431 227.416 133.559 226.712C133.687 225.992 133.751 225.088 133.751 224ZM139.951 224C139.951 221.248 140.479 219.08 141.535 217.496C142.607 215.912 144.327 215.12 146.695 215.12C149.063 215.12 150.775 215.912 151.831 217.496C152.903 219.08 153.439 221.248 153.439 224C153.439 226.784 152.903 228.968 151.831 230.552C150.775 232.136 149.063 232.928 146.695 232.928C144.327 232.928 142.607 232.136 141.535 230.552C140.479 228.968 139.951 226.784 139.951 224ZM149.407 224C149.407 222.384 149.231 221.144 148.879 220.28C148.527 219.4 147.799 218.96 146.695 218.96C145.591 218.96 144.863 219.4 144.511 220.28C144.159 221.144 143.983 222.384 143.983 224C143.983 225.088 144.047 225.992 144.175 226.712C144.303 227.416 144.559 227.992 144.943 228.44C145.343 228.872 145.927 229.088 146.695 229.088C147.463 229.088 148.039 228.872 148.423 228.44C148.823 227.992 149.087 227.416 149.215 226.712C149.343 225.992 149.407 225.088 149.407 224ZM160.431 229.208L157.767 236.096H155.151L156.543 229.208H160.431ZM162.498 224C162.498 221.248 163.026 219.08 164.082 217.496C165.154 215.912 166.874 215.12 169.242 215.12C171.61 215.12 173.322 215.912 174.378 217.496C175.45 219.08 175.986 221.248 175.986 224C175.986 226.784 175.45 228.968 174.378 230.552C173.322 232.136 171.61 232.928 169.242 232.928C166.874 232.928 165.154 232.136 164.082 230.552C163.026 228.968 162.498 226.784 162.498 224ZM171.954 224C171.954 222.384 171.778 221.144 171.426 220.28C171.074 219.4 170.346 218.96 169.242 218.96C168.138 218.96 167.41 219.4 167.058 220.28C166.706 221.144 166.53 222.384 166.53 224C166.53 225.088 166.594 225.992 166.722 226.712C166.85 227.416 167.106 227.992 167.49 228.44C167.89 228.872 168.474 229.088 169.242 229.088C170.01 229.088 170.586 228.872 170.97 228.44C171.37 227.992 171.634 227.416 171.762 226.712C171.89 225.992 171.954 225.088 171.954 224ZM178.154 224C178.154 221.248 178.682 219.08 179.738 217.496C180.81 215.912 182.53 215.12 184.898 215.12C187.266 215.12 188.978 215.912 190.034 217.496C191.106 219.08 191.642 221.248 191.642 224C191.642 226.784 191.106 228.968 190.034 230.552C188.978 232.136 187.266 232.928 184.898 232.928C182.53 232.928 180.81 232.136 179.738 230.552C178.682 228.968 178.154 226.784 178.154 224ZM187.61 224C187.61 222.384 187.434 221.144 187.082 220.28C186.73 219.4 186.002 218.96 184.898 218.96C183.794 218.96 183.066 219.4 182.714 220.28C182.362 221.144 182.186 222.384 182.186 224C182.186 225.088 182.25 225.992 182.378 226.712C182.506 227.416 182.762 227.992 183.146 228.44C183.546 228.872 184.13 229.088 184.898 229.088C185.666 229.088 186.242 228.872 186.626 228.44C187.026 227.992 187.29 227.416 187.418 226.712C187.546 225.992 187.61 225.088 187.61 224Z" fill="white"/>
<path d="M67.9236 183.8C68.7369 183.973 69.3903 184.38 69.8836 185.02C70.3769 185.647 70.6236 186.367 70.6236 187.18C70.6236 188.353 70.2103 189.287 69.3836 189.98C68.5703 190.66 67.4303 191 65.9636 191H59.4236V176.96H65.7436C67.1703 176.96 68.2836 177.287 69.0836 177.94C69.8969 178.593 70.3036 179.48 70.3036 180.6C70.3036 181.427 70.0836 182.113 69.6436 182.66C69.2169 183.207 68.6436 183.587 67.9236 183.8ZM62.8436 182.64H65.0836C65.6436 182.64 66.0703 182.52 66.3636 182.28C66.6703 182.027 66.8236 181.66 66.8236 181.18C66.8236 180.7 66.6703 180.333 66.3636 180.08C66.0703 179.827 65.6436 179.7 65.0836 179.7H62.8436V182.64ZM65.3636 188.24C65.9369 188.24 66.3769 188.113 66.6836 187.86C67.0036 187.593 67.1636 187.213 67.1636 186.72C67.1636 186.227 66.9969 185.84 66.6636 185.56C66.3436 185.28 65.8969 185.14 65.3236 185.14H62.8436V188.24H65.3636ZM83.6272 179.84V191H80.2072V189.48C79.8605 189.973 79.3872 190.373 78.7872 190.68C78.2005 190.973 77.5472 191.12 76.8272 191.12C75.9739 191.12 75.2205 190.933 74.5672 190.56C73.9139 190.173 73.4072 189.62 73.0472 188.9C72.6872 188.18 72.5072 187.333 72.5072 186.36V179.84H75.9072V185.9C75.9072 186.647 76.1005 187.227 76.4872 187.64C76.8739 188.053 77.3939 188.26 78.0472 188.26C78.7139 188.26 79.2405 188.053 79.6272 187.64C80.0139 187.227 80.2072 186.647 80.2072 185.9V179.84H83.6272ZM97.4838 179.84L90.4838 196.3H86.8038L89.3638 190.62L84.8237 179.84H88.6438L91.2238 186.82L93.7838 179.84H97.4838ZM115.519 191H112.099L106.379 182.34V191H102.959V176.96H106.379L112.099 185.66V176.96H115.519V191ZM123.078 191.16C121.984 191.16 120.998 190.927 120.118 190.46C119.251 189.993 118.564 189.327 118.058 188.46C117.564 187.593 117.318 186.58 117.318 185.42C117.318 184.273 117.571 183.267 118.078 182.4C118.584 181.52 119.278 180.847 120.158 180.38C121.038 179.913 122.024 179.68 123.118 179.68C124.211 179.68 125.198 179.913 126.078 180.38C126.958 180.847 127.651 181.52 128.158 182.4C128.664 183.267 128.918 184.273 128.918 185.42C128.918 186.567 128.658 187.58 128.138 188.46C127.631 189.327 126.931 189.993 126.038 190.46C125.158 190.927 124.171 191.16 123.078 191.16ZM123.078 188.2C123.731 188.2 124.284 187.96 124.738 187.48C125.204 187 125.438 186.313 125.438 185.42C125.438 184.527 125.211 183.84 124.758 183.36C124.318 182.88 123.771 182.64 123.118 182.64C122.451 182.64 121.898 182.88 121.458 183.36C121.018 183.827 120.798 184.513 120.798 185.42C120.798 186.313 121.011 187 121.438 187.48C121.878 187.96 122.424 188.2 123.078 188.2ZM146.752 179.84L143.732 191H139.952L138.192 183.76L136.372 191H132.612L129.572 179.84H132.992L134.572 187.82L136.452 179.84H140.072L141.972 187.78L143.532 179.84H146.752Z" fill="black"/>
</svg>