<svg width="221" height="125" viewBox="0 0 221 125" fill="none" xmlns="http://www.w3.org/2000/svg">
<path d="M54.6781 5.304C58.2301 5.304 61.3341 6.008 63.9901 7.416C66.6461 8.824 68.6941 10.808 70.1341 13.368C71.6061 15.896 72.3421 18.824 72.3421 22.152C72.3421 25.448 71.6061 28.376 70.1341 30.936C68.6941 33.496 66.6301 35.48 63.9421 36.888C61.2861 38.296 58.1981 39 54.6781 39H42.0541V5.304H54.6781ZM54.1501 31.896C57.2541 31.896 59.6701 31.048 61.3981 29.352C63.1261 27.656 63.9901 25.256 63.9901 22.152C63.9901 19.048 63.1261 16.632 61.3981 14.904C59.6701 13.176 57.2541 12.312 54.1501 12.312H50.2621V31.896H54.1501ZM102.177 25.176C102.177 25.944 102.129 26.744 102.033 27.576H83.4571C83.5851 29.24 84.1131 30.52 85.0411 31.416C86.0011 32.28 87.1691 32.712 88.5451 32.712C90.5931 32.712 92.0171 31.848 92.8171 30.12H101.553C101.105 31.88 100.289 33.464 99.1051 34.872C97.9531 36.28 96.4971 37.384 94.7371 38.184C92.9771 38.984 91.0091 39.384 88.8331 39.384C86.2091 39.384 83.8731 38.824 81.8251 37.704C79.7771 36.584 78.1771 34.984 77.0251 32.904C75.8731 30.824 75.2971 28.392 75.2971 25.608C75.2971 22.824 75.8571 20.392 76.9771 18.312C78.1291 16.232 79.7291 14.632 81.7771 13.512C83.8251 12.392 86.1771 11.832 88.8331 11.832C91.4251 11.832 93.7291 12.376 95.7451 13.464C97.7611 14.552 99.3291 16.104 100.449 18.12C101.601 20.136 102.177 22.488 102.177 25.176ZM93.7771 23.016C93.7771 21.608 93.2971 20.488 92.3371 19.656C91.3771 18.824 90.1771 18.408 88.7371 18.408C87.3611 18.408 86.1931 18.808 85.2331 19.608C84.3051 20.408 83.7291 21.544 83.5051 23.016H93.7771ZM121.435 32.04V39H117.259C114.283 39 111.963 38.28 110.299 36.84C108.635 35.368 107.803 32.984 107.803 29.688V19.032H104.539V12.216H107.803V5.688H116.011V12.216H121.387V19.032H116.011V29.784C116.011 30.584 116.203 31.16 116.587 31.512C116.971 31.864 117.611 32.04 118.507 32.04H121.435ZM124.375 25.56C124.375 22.808 124.887 20.392 125.911 18.312C126.967 16.232 128.391 14.632 130.183 13.512C131.975 12.392 133.975 11.832 136.183 11.832C138.071 11.832 139.719 12.216 141.127 12.984C142.567 13.752 143.671 14.76 144.439 16.008V12.216H152.647V39H144.439V35.208C143.639 36.456 142.519 37.464 141.079 38.232C139.671 39 138.023 39.384 136.135 39.384C133.959 39.384 131.975 38.824 130.183 37.704C128.391 36.552 126.967 34.936 125.911 32.856C124.887 30.744 124.375 28.312 124.375 25.56ZM144.439 25.608C144.439 23.56 143.863 21.944 142.711 20.76C141.591 19.576 140.215 18.984 138.583 18.984C136.951 18.984 135.559 19.576 134.407 20.76C133.287 21.912 132.727 23.512 132.727 25.56C132.727 27.608 133.287 29.24 134.407 30.456C135.559 31.64 136.951 32.232 138.583 32.232C140.215 32.232 141.591 31.64 142.711 30.456C143.863 29.272 144.439 27.656 144.439 25.608ZM162.713 9.432C161.273 9.432 160.089 9.016 159.161 8.184C158.265 7.32 157.817 6.264 157.817 5.016C157.817 3.736 158.265 2.68 159.161 1.848C160.089 0.983997 161.273 0.551997 162.713 0.551997C164.121 0.551997 165.273 0.983997 166.169 1.848C167.097 2.68 167.561 3.736 167.561 5.016C167.561 6.264 167.097 7.32 166.169 8.184C165.273 9.016 164.121 9.432 162.713 9.432ZM166.793 12.216V39H158.585V12.216H166.793ZM180.95 3.48V39H172.742V3.48H180.95ZM48.6956 77.304L39.9116 111H29.9756L24.5996 88.824L19.0316 111H9.09556L0.551563 77.304H9.33556L14.1836 101.832L20.1836 77.304H29.2076L34.9676 101.832L39.8636 77.304H48.6956ZM78.0599 97.176C78.0599 97.944 78.0119 98.744 77.9159 99.576H59.3399C59.4679 101.24 59.9959 102.52 60.9239 103.416C61.8839 104.28 63.0519 104.712 64.4279 104.712C66.4759 104.712 67.8999 103.848 68.6999 102.12H77.4359C76.9879 103.88 76.1719 105.464 74.9879 106.872C73.8359 108.28 72.3799 109.384 70.6199 110.184C68.8599 110.984 66.8919 111.384 64.7159 111.384C62.0919 111.384 59.7559 110.824 57.7079 109.704C55.6599 108.584 54.0599 106.984 52.9079 104.904C51.7559 102.824 51.1799 100.392 51.1799 97.608C51.1799 94.824 51.7399 92.392 52.8599 90.312C54.0119 88.232 55.6119 86.632 57.6599 85.512C59.7079 84.392 62.0599 83.832 64.7159 83.832C67.3079 83.832 69.6119 84.376 71.6279 85.464C73.6439 86.552 75.2119 88.104 76.3319 90.12C77.4839 92.136 78.0599 94.488 78.0599 97.176ZM69.6599 95.016C69.6599 93.608 69.1799 92.488 68.2199 91.656C67.2599 90.824 66.0599 90.408 64.6199 90.408C63.2439 90.408 62.0759 90.808 61.1159 91.608C60.1879 92.408 59.6119 93.544 59.3879 95.016H69.6599ZM80.7581 97.56C80.7581 94.808 81.2701 92.392 82.2941 90.312C83.3501 88.232 84.7741 86.632 86.5661 85.512C88.3581 84.392 90.3581 83.832 92.5661 83.832C94.3261 83.832 95.9261 84.2 97.3661 84.936C98.8381 85.672 99.9901 86.664 100.822 87.912V75.48H109.03V111H100.822V107.16C100.054 108.44 98.9501 109.464 97.5101 110.232C96.1021 111 94.4541 111.384 92.5661 111.384C90.3581 111.384 88.3581 110.824 86.5661 109.704C84.7741 108.552 83.3501 106.936 82.2941 104.856C81.2701 102.744 80.7581 100.312 80.7581 97.56ZM100.822 97.608C100.822 95.56 100.246 93.944 99.0941 92.76C97.9741 91.576 96.5981 90.984 94.9661 90.984C93.3341 90.984 91.9421 91.576 90.7901 92.76C89.6701 93.912 89.1101 95.512 89.1101 97.56C89.1101 99.608 89.6701 101.24 90.7901 102.456C91.9421 103.64 93.3341 104.232 94.9661 104.232C96.5981 104.232 97.9741 103.64 99.0941 102.456C100.246 101.272 100.822 99.656 100.822 97.608ZM113.336 97.56C113.336 94.808 113.848 92.392 114.872 90.312C115.928 88.232 117.352 86.632 119.144 85.512C120.936 84.392 122.936 83.832 125.144 83.832C126.904 83.832 128.504 84.2 129.944 84.936C131.416 85.672 132.568 86.664 133.4 87.912V75.48H141.608V111H133.4V107.16C132.632 108.44 131.528 109.464 130.088 110.232C128.68 111 127.032 111.384 125.144 111.384C122.936 111.384 120.936 110.824 119.144 109.704C117.352 108.552 115.928 106.936 114.872 104.856C113.848 102.744 113.336 100.312 113.336 97.56ZM133.4 97.608C133.4 95.56 132.824 93.944 131.672 92.76C130.552 91.576 129.176 90.984 127.544 90.984C125.912 90.984 124.52 91.576 123.368 92.76C122.248 93.912 121.688 95.512 121.688 97.56C121.688 99.608 122.248 101.24 123.368 102.456C124.52 103.64 125.912 104.232 127.544 104.232C129.176 104.232 130.552 103.64 131.672 102.456C132.824 101.272 133.4 99.656 133.4 97.608ZM151.674 81.432C150.234 81.432 149.05 81.016 148.122 80.184C147.226 79.32 146.778 78.264 146.778 77.016C146.778 75.736 147.226 74.68 148.122 73.848C149.05 72.984 150.234 72.552 151.674 72.552C153.082 72.552 154.234 72.984 155.13 73.848C156.058 74.68 156.522 75.736 156.522 77.016C156.522 78.264 156.058 79.32 155.13 80.184C154.234 81.016 153.082 81.432 151.674 81.432ZM155.754 84.216V111H147.546V84.216H155.754ZM178.023 83.928C181.159 83.928 183.655 84.952 185.511 87C187.399 89.016 188.343 91.8 188.343 95.352V111H180.183V96.456C180.183 94.664 179.719 93.272 178.791 92.28C177.863 91.288 176.615 90.792 175.047 90.792C173.479 90.792 172.231 91.288 171.303 92.28C170.375 93.272 169.911 94.664 169.911 96.456V111H161.703V84.216H169.911V87.768C170.743 86.584 171.863 85.656 173.271 84.984C174.679 84.28 176.263 83.928 178.023 83.928ZM204.222 83.832C206.11 83.832 207.758 84.216 209.166 84.984C210.606 85.752 211.71 86.76 212.478 88.008V84.216H220.686V110.952C220.686 113.416 220.19 115.64 219.198 117.624C218.238 119.64 216.75 121.24 214.734 122.424C212.75 123.608 210.27 124.2 207.294 124.2C203.326 124.2 200.11 123.256 197.646 121.368C195.182 119.512 193.774 116.984 193.422 113.784H201.534C201.79 114.808 202.398 115.608 203.358 116.184C204.318 116.792 205.502 117.096 206.91 117.096C208.606 117.096 209.95 116.6 210.942 115.608C211.966 114.648 212.478 113.096 212.478 110.952V107.16C211.678 108.408 210.574 109.432 209.166 110.232C207.758 111 206.11 111.384 204.222 111.384C202.014 111.384 200.014 110.824 198.222 109.704C196.43 108.552 195.006 106.936 193.95 104.856C192.926 102.744 192.414 100.312 192.414 97.56C192.414 94.808 192.926 92.392 193.95 90.312C195.006 88.232 196.43 86.632 198.222 85.512C200.014 84.392 202.014 83.832 204.222 83.832ZM212.478 97.608C212.478 95.56 211.902 93.944 210.75 92.76C209.63 91.576 208.254 90.984 206.622 90.984C204.99 90.984 203.598 91.576 202.446 92.76C201.326 93.912 200.766 95.512 200.766 97.56C200.766 99.608 201.326 101.24 202.446 102.456C203.598 103.64 204.99 104.232 206.622 104.232C208.254 104.232 209.63 103.64 210.75 102.456C211.902 101.272 212.478 99.656 212.478 97.608Z" fill="#2C512B"/>
</svg>
