<svg width="216" height="112" viewBox="0 0 216 112" fill="none" xmlns="http://www.w3.org/2000/svg">
<path d="M22.2323 5.304V11.88H8.50431V18.984H18.7763V25.368H8.50431V39H0.296313V5.304H22.2323ZM24.9143 25.56C24.9143 22.808 25.4263 20.392 26.4503 18.312C27.5063 16.232 28.9303 14.632 30.7223 13.512C32.5143 12.392 34.5143 11.832 36.7223 11.832C38.6103 11.832 40.2583 12.216 41.6663 12.984C43.1063 13.752 44.2103 14.76 44.9783 16.008V12.216H53.1863V39H44.9783V35.208C44.1783 36.456 43.0583 37.464 41.6183 38.232C40.2103 39 38.5623 39.384 36.6743 39.384C34.4983 39.384 32.5143 38.824 30.7223 37.704C28.9303 36.552 27.5063 34.936 26.4503 32.856C25.4263 30.744 24.9143 28.312 24.9143 25.56ZM44.9783 25.608C44.9783 23.56 44.4023 21.944 43.2503 20.76C42.1303 19.576 40.7543 18.984 39.1223 18.984C37.4903 18.984 36.0983 19.576 34.9463 20.76C33.8263 21.912 33.2663 23.512 33.2663 25.56C33.2663 27.608 33.8263 29.24 34.9463 30.456C36.0983 31.64 37.4903 32.232 39.1223 32.232C40.7543 32.232 42.1303 31.64 43.2503 30.456C44.4023 29.272 44.9783 27.656 44.9783 25.608ZM57.4924 25.608C57.4924 22.824 58.0524 20.392 59.1724 18.312C60.3244 16.232 61.9084 14.632 63.9244 13.512C65.9724 12.392 68.3084 11.832 70.9324 11.832C74.2924 11.832 77.0924 12.712 79.3324 14.472C81.6044 16.232 83.0924 18.712 83.7964 21.912H75.0604C74.3244 19.864 72.9004 18.84 70.7884 18.84C69.2844 18.84 68.0844 19.432 67.1884 20.616C66.2924 21.768 65.8444 23.432 65.8444 25.608C65.8444 27.784 66.2924 29.464 67.1884 30.648C68.0844 31.8 69.2844 32.376 70.7884 32.376C72.9004 32.376 74.3244 31.352 75.0604 29.304H83.7964C83.0924 32.44 81.6044 34.904 79.3324 36.696C77.0604 38.488 74.2604 39.384 70.9324 39.384C68.3084 39.384 65.9724 38.824 63.9244 37.704C61.9084 36.584 60.3244 34.984 59.1724 32.904C58.0524 30.824 57.4924 28.392 57.4924 25.608ZM92.3149 9.432C90.8749 9.432 89.6909 9.016 88.7629 8.184C87.8669 7.32 87.4189 6.264 87.4189 5.016C87.4189 3.736 87.8669 2.68 88.7629 1.848C89.6909 0.983997 90.8749 0.551997 92.3149 0.551997C93.7229 0.551997 94.8749 0.983997 95.7709 1.848C96.6989 2.68 97.1629 3.736 97.1629 5.016C97.1629 6.264 96.6989 7.32 95.7709 8.184C94.8749 9.016 93.7229 9.432 92.3149 9.432ZM96.3949 12.216V39H88.1869V12.216H96.3949ZM110.551 3.48V39H102.343V3.48H110.551ZM120.627 9.432C119.187 9.432 118.003 9.016 117.075 8.184C116.179 7.32 115.731 6.264 115.731 5.016C115.731 3.736 116.179 2.68 117.075 1.848C118.003 0.983997 119.187 0.551997 120.627 0.551997C122.035 0.551997 123.187 0.983997 124.083 1.848C125.011 2.68 125.475 3.736 125.475 5.016C125.475 6.264 125.011 7.32 124.083 8.184C123.187 9.016 122.035 9.432 120.627 9.432ZM124.707 12.216V39H116.499V12.216H124.707ZM145.584 32.04V39H141.408C138.432 39 136.112 38.28 134.448 36.84C132.784 35.368 131.952 32.984 131.952 29.688V19.032H128.688V12.216H131.952V5.688H140.16V12.216H145.536V19.032H140.16V29.784C140.16 30.584 140.352 31.16 140.736 31.512C141.12 31.864 141.76 32.04 142.656 32.04H145.584ZM154.284 9.432C152.844 9.432 151.66 9.016 150.732 8.184C149.836 7.32 149.388 6.264 149.388 5.016C149.388 3.736 149.836 2.68 150.732 1.848C151.66 0.983997 152.844 0.551997 154.284 0.551997C155.692 0.551997 156.844 0.983997 157.74 1.848C158.668 2.68 159.132 3.736 159.132 5.016C159.132 6.264 158.668 7.32 157.74 8.184C156.844 9.016 155.692 9.432 154.284 9.432ZM158.364 12.216V39H150.156V12.216H158.364ZM189.56 25.176C189.56 25.944 189.512 26.744 189.416 27.576H170.84C170.968 29.24 171.496 30.52 172.424 31.416C173.384 32.28 174.552 32.712 175.928 32.712C177.976 32.712 179.4 31.848 180.2 30.12H188.936C188.488 31.88 187.672 33.464 186.488 34.872C185.336 36.28 183.88 37.384 182.12 38.184C180.36 38.984 178.392 39.384 176.216 39.384C173.592 39.384 171.256 38.824 169.208 37.704C167.16 36.584 165.56 34.984 164.408 32.904C163.256 30.824 162.68 28.392 162.68 25.608C162.68 22.824 163.24 20.392 164.36 18.312C165.512 16.232 167.112 14.632 169.16 13.512C171.208 12.392 173.56 11.832 176.216 11.832C178.808 11.832 181.112 12.376 183.128 13.464C185.144 14.552 186.712 16.104 187.832 18.12C188.984 20.136 189.56 22.488 189.56 25.176ZM181.16 23.016C181.16 21.608 180.68 20.488 179.72 19.656C178.76 18.824 177.56 18.408 176.12 18.408C174.744 18.408 173.576 18.808 172.616 19.608C171.688 20.408 171.112 21.544 170.888 23.016H181.16ZM204.786 39.384C202.45 39.384 200.37 38.984 198.546 38.184C196.722 37.384 195.282 36.296 194.226 34.92C193.17 33.512 192.578 31.944 192.45 30.216H200.562C200.658 31.144 201.09 31.896 201.858 32.472C202.626 33.048 203.57 33.336 204.69 33.336C205.714 33.336 206.498 33.144 207.042 32.76C207.618 32.344 207.906 31.816 207.906 31.176C207.906 30.408 207.506 29.848 206.706 29.496C205.906 29.112 204.61 28.696 202.818 28.248C200.898 27.8 199.298 27.336 198.018 26.856C196.738 26.344 195.634 25.56 194.706 24.504C193.778 23.416 193.314 21.96 193.314 20.136C193.314 18.6 193.73 17.208 194.562 15.96C195.426 14.68 196.674 13.672 198.306 12.936C199.97 12.2 201.938 11.832 204.21 11.832C207.57 11.832 210.21 12.664 212.13 14.328C214.082 15.992 215.202 18.2 215.49 20.952H207.906C207.778 20.024 207.362 19.288 206.658 18.744C205.986 18.2 205.09 17.928 203.97 17.928C203.01 17.928 202.274 18.12 201.762 18.504C201.25 18.856 200.994 19.352 200.994 19.992C200.994 20.76 201.394 21.336 202.194 21.72C203.026 22.104 204.306 22.488 206.034 22.872C208.018 23.384 209.634 23.896 210.882 24.408C212.13 24.888 213.218 25.688 214.146 26.808C215.106 27.896 215.602 29.368 215.634 31.224C215.634 32.792 215.186 34.2 214.29 35.448C213.426 36.664 212.162 37.624 210.498 38.328C208.866 39.032 206.962 39.384 204.786 39.384ZM75.2069 77.304V111H66.9989V97.128H54.2309V111H46.0229V77.304H54.2309V90.504H66.9989V77.304H75.2069ZM93.3243 111.384C90.7003 111.384 88.3323 110.824 86.2203 109.704C84.1403 108.584 82.4923 106.984 81.2763 104.904C80.0923 102.824 79.5003 100.392 79.5003 97.608C79.5003 94.856 80.1083 92.44 81.3242 90.36C82.5403 88.248 84.2043 86.632 86.3163 85.512C88.4283 84.392 90.7963 83.832 93.4203 83.832C96.0443 83.832 98.4123 84.392 100.524 85.512C102.636 86.632 104.3 88.248 105.516 90.36C106.732 92.44 107.34 94.856 107.34 97.608C107.34 100.36 106.716 102.792 105.468 104.904C104.252 106.984 102.572 108.584 100.428 109.704C98.3163 110.824 95.9483 111.384 93.3243 111.384ZM93.3243 104.28C94.8923 104.28 96.2203 103.704 97.3083 102.552C98.4283 101.4 98.9883 99.752 98.9883 97.608C98.9883 95.464 98.4443 93.816 97.3563 92.664C96.3003 91.512 94.9883 90.936 93.4203 90.936C91.8203 90.936 90.4923 91.512 89.4363 92.664C88.3803 93.784 87.8523 95.432 87.8523 97.608C87.8523 99.752 88.3643 101.4 89.3883 102.552C90.4443 103.704 91.7563 104.28 93.3243 104.28ZM126.623 104.04V111H122.447C119.471 111 117.151 110.28 115.487 108.84C113.823 107.368 112.991 104.984 112.991 101.688V91.032H109.727V84.216H112.991V77.688H121.199V84.216H126.575V91.032H121.199V101.784C121.199 102.584 121.391 103.16 121.775 103.512C122.159 103.864 122.799 104.04 123.695 104.04H126.623ZM156.443 97.176C156.443 97.944 156.395 98.744 156.299 99.576H137.723C137.851 101.24 138.379 102.52 139.307 103.416C140.267 104.28 141.435 104.712 142.811 104.712C144.859 104.712 146.283 103.848 147.083 102.12H155.819C155.371 103.88 154.555 105.464 153.371 106.872C152.219 108.28 150.763 109.384 149.003 110.184C147.243 110.984 145.275 111.384 143.099 111.384C140.475 111.384 138.139 110.824 136.091 109.704C134.043 108.584 132.443 106.984 131.291 104.904C130.139 102.824 129.563 100.392 129.563 97.608C129.563 94.824 130.123 92.392 131.243 90.312C132.395 88.232 133.995 86.632 136.043 85.512C138.091 84.392 140.443 83.832 143.099 83.832C145.691 83.832 147.995 84.376 150.011 85.464C152.027 86.552 153.595 88.104 154.715 90.12C155.867 92.136 156.443 94.488 156.443 97.176ZM148.043 95.016C148.043 93.608 147.563 92.488 146.603 91.656C145.643 90.824 144.443 90.408 143.003 90.408C141.627 90.408 140.459 90.808 139.499 91.608C138.571 92.408 137.995 93.544 137.771 95.016H148.043ZM168.981 75.48V111H160.773V75.48H168.981Z" fill="#2C512B"/>
</svg>
